<?xml version="1.0" encoding="UTF-8"?>
<!DOCTYPE svg PUBLIC "-//W3C//DTD SVG 1.1//EN" "http://www.w3.org/Graphics/SVG/1.1/DTD/svg11.dtd">
<svg xmlns="http://www.w3.org/2000/svg" version="1.1" width="512px" height="512px" style="shape-rendering:geometricPrecision; text-rendering:geometricPrecision; image-rendering:optimizeQuality; fill-rule:evenodd; clip-rule:evenodd" xmlns:xlink="http://www.w3.org/1999/xlink">
<g><path style="opacity:0.998" fill="#0b0809" d="M 310.5,26.5 C 311.14,29.6822 312.14,30.0155 313.5,27.5C 314.8,28.1079 316.133,28.7745 317.5,29.5C 332.064,26.7789 345.397,29.6122 357.5,38C 362.278,42.3927 366.944,46.8927 371.5,51.5C 376.115,67.4932 372.115,80.9932 359.5,92C 364.275,96.3858 367.942,101.552 370.5,107.5C 376.673,102.711 383.673,101.211 391.5,103C 395.972,104.972 399.305,108.138 401.5,112.5C 415.255,105.487 418.255,95.3208 410.5,82C 403.014,76.7454 394.681,75.0788 385.5,77C 378.925,79.9689 375.758,85.1356 376,92.5C 374.492,94.8384 372.325,95.8384 369.5,95.5C 369.054,82.778 374.054,73.1113 384.5,66.5C 400.174,63.3282 412.507,68.4949 421.5,82C 422.094,82.4643 422.761,82.631 423.5,82.5C 423.082,83.2216 422.416,83.7216 421.5,84C 425.096,90.6263 425.429,97.4597 422.5,104.5C 437.708,114.293 440.708,127.126 431.5,143C 443.351,158.583 440.185,170.083 422,177.5C 420.016,198.188 417.85,218.854 415.5,239.5C 414.479,243.98 413.813,248.647 413.5,253.5C 404.385,325.143 395.218,396.81 386,468.5C 381.737,476.076 375.237,480.576 366.5,482C 296.755,496.918 226.755,498.252 156.5,486C 150.857,485.064 145.524,483.23 140.5,480.5C 139.702,480.957 139.369,481.624 139.5,482.5C 136.356,477.915 132.523,473.915 128,470.5C 127.667,469.5 127.333,468.5 127,467.5C 113.649,375.354 99.4823,283.354 84.5,191.5C 85.0431,191.44 85.3764,191.107 85.5,190.5C 84.9258,187.823 84.2592,185.157 83.5,182.5C 81.2011,181.365 79.0344,180.032 77,178.5C 76.5357,179.094 76.369,179.761 76.5,180.5C 73.3024,177.214 69.6358,174.381 65.5,172C 58.2613,164.438 57.5947,156.271 63.5,147.5C 55.3426,123.474 62.0093,104.641 83.5,91C 95.2254,84.4748 107.559,82.8081 120.5,86C 123.131,83.0234 126.131,80.5234 129.5,78.5C 130.458,58.1823 141.124,48.0156 161.5,48C 172.386,33.9031 186.386,29.5698 203.5,35C 210.443,37.614 216.609,41.4473 222,46.5C 225.453,28.034 235.953,15.2006 253.5,8C 277.129,0.505489 296.129,6.67216 310.5,26.5 Z"/></g>
<g><path style="opacity:1" fill="#f8f8dd" d="M 287.5,19.5 C 289.764,24.5646 290.764,29.8979 290.5,35.5C 289.834,43.4879 289.501,51.4879 289.5,59.5C 286.791,58.0641 283.958,56.7307 281,55.5C 276.783,58.0288 272.617,60.6955 268.5,63.5C 267.323,54.4829 262.323,48.6496 253.5,46C 245.844,44.5534 238.678,45.7201 232,49.5C 232.089,40.4845 235.589,32.9845 242.5,27C 256.043,15.4095 271.043,12.9095 287.5,19.5 Z"/></g>
<g><path style="opacity:0.996" fill="#557c7e" d="M 310.5,26.5 C 311.791,26.2627 312.791,26.596 313.5,27.5C 312.14,30.0155 311.14,29.6822 310.5,26.5 Z"/></g>
<g><path style="opacity:1" fill="#77cdd2" d="M 287.5,19.5 C 295.969,23.465 301.302,29.965 303.5,39C 300.051,46.737 296.718,54.5704 293.5,62.5C 293.167,62.5 292.833,62.5 292.5,62.5C 291.5,61.5 290.5,60.5 289.5,59.5C 289.501,51.4879 289.834,43.4879 290.5,35.5C 290.764,29.8979 289.764,24.5646 287.5,19.5 Z"/></g>
<g><path style="opacity:1" fill="#fafadc" d="M 338.5,75.5 C 338.5,76.8333 338.5,78.1667 338.5,79.5C 337.566,80.5676 337.232,81.901 337.5,83.5C 330.698,83.2951 324.031,83.7951 317.5,85C 317.833,84.6667 318.167,84.3333 318.5,84C 316.98,81.4604 315.98,78.627 315.5,75.5C 314.833,75.8333 314.167,76.1667 313.5,76.5C 311.597,74.4377 309.263,73.1044 306.5,72.5C 305.998,71.2836 305.665,70.1169 305.5,69C 308.527,66.6395 311.194,63.9729 313.5,61C 312.549,60.2825 312.383,59.4491 313,58.5C 315.685,57.3164 317.852,55.4831 319.5,53C 321.251,51.8555 323.084,51.3555 325,51.5C 325.667,52.1667 326.333,52.8333 327,53.5C 329.728,50.7286 329.561,48.8952 326.5,48C 326.833,47.6667 327.167,47.3333 327.5,47C 331.762,47.2045 336.096,47.5379 340.5,48C 340.833,48.3333 341.167,48.6667 341.5,49C 338.723,52.5747 339.056,55.908 342.5,59C 341.833,60.3333 341.167,61.6667 340.5,63C 339.668,63.6877 339.002,63.521 338.5,62.5C 339.645,61.109 339.645,59.7757 338.5,58.5C 338.167,59.5 337.833,60.5 337.5,61.5C 338.167,63.5 338.833,65.5 339.5,67.5C 338.905,70.1401 338.572,72.8067 338.5,75.5 Z"/></g>
<g><path style="opacity:1" fill="#f3f6e2" d="M 338.5,75.5 C 338.572,72.8067 338.905,70.1401 339.5,67.5C 338.833,65.5 338.167,63.5 337.5,61.5C 337.833,60.5 338.167,59.5 338.5,58.5C 339.645,59.7757 339.645,61.109 338.5,62.5C 339.002,63.521 339.668,63.6877 340.5,63C 341.167,61.6667 341.833,60.3333 342.5,59C 339.056,55.908 338.723,52.5747 341.5,49C 341.167,48.6667 340.833,48.3333 340.5,48C 336.096,47.5379 331.762,47.2045 327.5,47C 327.167,47.3333 326.833,47.6667 326.5,48C 329.561,48.8952 329.728,50.7286 327,53.5C 326.333,52.8333 325.667,52.1667 325,51.5C 323.084,51.3555 321.251,51.8555 319.5,53C 317.852,55.4831 315.685,57.3164 313,58.5C 312.383,59.4491 312.549,60.2825 313.5,61C 311.194,63.9729 308.527,66.6395 305.5,69C 305.665,70.1169 305.998,71.2836 306.5,72.5C 309.263,73.1044 311.597,74.4377 313.5,76.5C 314.167,76.1667 314.833,75.8333 315.5,75.5C 315.98,78.627 316.98,81.4604 318.5,84C 318.167,84.3333 317.833,84.6667 317.5,85C 324.031,83.7951 330.698,83.2951 337.5,83.5C 337.232,81.901 337.566,80.5676 338.5,79.5C 338.325,81.6208 338.659,83.6208 339.5,85.5C 327.62,83.4475 316.953,86.1142 307.5,93.5C 305.399,90.2034 304.065,86.5368 303.5,82.5C 306.645,84.1908 309.979,84.6908 313.5,84C 316.167,82 316.167,80 313.5,78C 304.11,76.3885 300.276,70.8885 302,61.5C 305.388,56.9523 308.555,52.2856 311.5,47.5C 312.265,47.9234 313.098,48.2568 314,48.5C 325.258,44.8375 336.592,44.5042 348,47.5C 344.148,56.5539 340.982,65.8872 338.5,75.5 Z"/></g>
<g><path style="opacity:1" fill="#7acbd0" d="M 339.5,85.5 C 338.659,83.6208 338.325,81.6208 338.5,79.5C 338.5,78.1667 338.5,76.8333 338.5,75.5C 340.982,65.8872 344.148,56.5539 348,47.5C 336.592,44.5042 325.258,44.8375 314,48.5C 313.098,48.2568 312.265,47.9234 311.5,47.5C 312.038,45.8828 312.371,44.2161 312.5,42.5C 330.745,36.0205 346.578,39.6871 360,53.5C 365.309,67.1729 362.809,79.1729 352.5,89.5C 348.358,87.4254 344.025,86.0921 339.5,85.5 Z"/></g>
<g><path style="opacity:1" fill="#faf9dc" d="M 256.5,74.5 C 251.172,75.8171 248.505,79.1504 248.5,84.5C 252.306,84.98 255.639,83.98 258.5,81.5C 259.107,81.6236 259.44,81.9569 259.5,82.5C 257.4,85.1041 255.067,87.6041 252.5,90C 246.892,93.2762 241.558,96.9429 236.5,101C 233.107,102.168 230.441,101.334 228.5,98.5C 224.477,101.347 220.144,103.347 215.5,104.5C 208.599,105.257 204.599,102.257 203.5,95.5C 204.43,91.414 205.597,87.414 207,83.5C 208,80.8333 209,80.8333 210,83.5C 211.509,80.9942 213.009,78.4942 214.5,76C 211.833,74.6667 211.833,73.3333 214.5,72C 216.595,73.1503 218.762,73.6503 221,73.5C 221.5,73 222,72.5 222.5,72C 216.215,71.1852 216.549,70.3519 223.5,69.5C 226.406,70.5283 229.239,70.5283 232,69.5C 232.333,70.1667 232.667,70.8333 233,71.5C 233.494,69.8659 233.66,68.1992 233.5,66.5C 234.93,66.5792 236.264,66.2458 237.5,65.5C 239.304,63.0201 241.637,61.3535 244.5,60.5C 244.5,59.1667 244.5,57.8333 244.5,56.5C 249.072,56.105 253.072,57.2716 256.5,60C 255.692,60.3076 255.025,60.8076 254.5,61.5C 256.235,65.3775 256.235,69.0442 254.5,72.5C 254.846,73.6956 255.346,73.6956 256,72.5C 256.464,73.0944 256.631,73.7611 256.5,74.5 Z"/></g>
<g><path style="opacity:1" fill="#f5b046" d="M 289.5,59.5 C 290.5,60.5 291.5,61.5 292.5,62.5C 292.173,67.544 292.506,72.544 293.5,77.5C 294.681,78.5145 295.681,79.6812 296.5,81C 296.095,81.9454 295.428,82.6121 294.5,83C 290.41,84.8306 286.91,84.3306 284,81.5C 280.85,84.4295 281.683,85.9295 286.5,86C 285.057,87.0672 283.724,88.2338 282.5,89.5C 281.522,89.0233 280.689,88.3567 280,87.5C 279.665,89.5029 278.832,91.1696 277.5,92.5C 273.774,92.8226 270.107,92.4892 266.5,91.5C 269.128,86.319 269.128,81.1524 266.5,76C 268.22,72.0254 268.887,67.8588 268.5,63.5C 272.617,60.6955 276.783,58.0288 281,55.5C 283.958,56.7307 286.791,58.0641 289.5,59.5 Z"/></g>
<g><path style="opacity:1" fill="#edeedb" d="M 256.5,74.5 C 256.631,73.7611 256.464,73.0944 256,72.5C 255.346,73.6956 254.846,73.6956 254.5,72.5C 256.235,69.0442 256.235,65.3775 254.5,61.5C 255.025,60.8076 255.692,60.3076 256.5,60C 253.072,57.2716 249.072,56.105 244.5,56.5C 244.5,57.8333 244.5,59.1667 244.5,60.5C 241.637,61.3535 239.304,63.0201 237.5,65.5C 236.264,66.2458 234.93,66.5792 233.5,66.5C 233.66,68.1992 233.494,69.8659 233,71.5C 232.667,70.8333 232.333,70.1667 232,69.5C 229.239,70.5283 226.406,70.5283 223.5,69.5C 216.549,70.3519 216.215,71.1852 222.5,72C 222,72.5 221.5,73 221,73.5C 218.762,73.6503 216.595,73.1503 214.5,72C 211.833,73.3333 211.833,74.6667 214.5,76C 213.009,78.4942 211.509,80.9942 210,83.5C 209,80.8333 208,80.8333 207,83.5C 205.597,87.414 204.43,91.414 203.5,95.5C 202.405,87.844 203.905,80.5107 208,73.5C 209.543,71.6217 211.376,70.1217 213.5,69C 218.823,68.5006 224.156,68.334 229.5,68.5C 230.001,61.4924 233.668,56.9924 240.5,55C 246.064,53.99 251.398,54.6567 256.5,57C 260.305,61.0911 261.472,65.9245 260,71.5C 258.961,72.7101 257.794,73.7101 256.5,74.5 Z"/></g>
<g><path style="opacity:1" fill="#7acbd0" d="M 371.5,51.5 C 376.925,55.5888 381.258,60.5888 384.5,66.5C 374.054,73.1113 369.054,82.778 369.5,95.5C 372.325,95.8384 374.492,94.8384 376,92.5C 375.758,85.1356 378.925,79.9689 385.5,77C 394.681,75.0788 403.014,76.7454 410.5,82C 418.255,95.3208 415.255,105.487 401.5,112.5C 399.305,108.138 395.972,104.972 391.5,103C 383.673,101.211 376.673,102.711 370.5,107.5C 367.942,101.552 364.275,96.3858 359.5,92C 372.115,80.9932 376.115,67.4932 371.5,51.5 Z"/></g>
<g><path style="opacity:1" fill="#eeaf50" d="M 292.5,62.5 C 292.833,62.5 293.167,62.5 293.5,62.5C 292.59,71.3472 295.924,78.0139 303.5,82.5C 304.065,86.5368 305.399,90.2034 307.5,93.5C 304.324,96.5113 302.157,100.178 301,104.5C 297.417,100.631 293.25,97.631 288.5,95.5C 292.275,92.8059 293.608,89.3059 292.5,85C 291.5,84.3333 290.5,84.3333 289.5,85C 287.257,87.4878 285.257,90.1544 283.5,93C 281.288,93.7891 279.288,93.6225 277.5,92.5C 278.832,91.1696 279.665,89.5029 280,87.5C 280.689,88.3567 281.522,89.0233 282.5,89.5C 283.724,88.2338 285.057,87.0672 286.5,86C 281.683,85.9295 280.85,84.4295 284,81.5C 286.91,84.3306 290.41,84.8306 294.5,83C 295.428,82.6121 296.095,81.9454 296.5,81C 295.681,79.6812 294.681,78.5145 293.5,77.5C 292.506,72.544 292.173,67.544 292.5,62.5 Z"/></g>
<g><path style="opacity:1" fill="#f9f8dc" d="M 349.5,97.5 C 366.983,106.416 370.65,119.416 360.5,136.5C 358.234,137.314 355.9,137.814 353.5,138C 351.31,142.73 352.81,145.23 358,145.5C 359.967,145.458 361.801,144.958 363.5,144C 367.04,140.427 369.706,136.261 371.5,131.5C 375.395,130.73 379.062,131.563 382.5,134C 384.734,135.638 386.067,137.805 386.5,140.5C 381.164,145.841 374.83,149.675 367.5,152C 364.402,152.918 361.235,153.418 358,153.5C 350.596,151.745 343.096,151.245 335.5,152C 331.345,153.91 327.345,156.077 323.5,158.5C 325.616,148.716 324.616,139.383 320.5,130.5C 320.654,126.975 319.321,124.141 316.5,122C 317.518,118.015 319.518,114.181 322.5,110.5C 323.452,108.955 323.785,107.288 323.5,105.5C 325.527,105.662 327.527,105.495 329.5,105C 330.362,102.266 331.195,102.099 332,104.5C 332.643,101.28 334.476,99.1133 337.5,98C 335.744,97.7978 334.078,97.2978 332.5,96.5C 336.247,95.3987 339.913,95.732 343.5,97.5C 344.711,98.2739 344.711,99.1072 343.5,100C 344.025,100.692 344.692,101.192 345.5,101.5C 346.521,99.812 347.855,98.4787 349.5,97.5 Z"/></g>
<g><path style="opacity:1" fill="#f9f8dc" d="M 198.5,72.5 C 198.516,70.5159 197.516,69.5159 195.5,69.5C 194.062,69.7189 192.729,70.2189 191.5,71C 187.301,75.5343 182.801,79.701 178,83.5C 174.537,89.8719 173.871,96.5385 176,103.5C 177.302,104.085 178.469,104.751 179.5,105.5C 168.423,104.873 159.423,108.873 152.5,117.5C 152.586,116.504 152.252,115.671 151.5,115C 149.167,114.333 146.833,114.333 144.5,115C 139.989,118.501 136.656,122.834 134.5,128C 124.968,127.106 116.968,130.106 110.5,137C 111.094,137.464 111.761,137.631 112.5,137.5C 110.645,139.033 108.812,140.7 107,142.5C 106.329,141.748 105.496,141.414 104.5,141.5C 104.389,140.883 104.056,140.383 103.5,140C 95.8,139.732 88.1333,139.232 80.5,138.5C 77.4108,137.457 74.4108,136.124 71.5,134.5C 69.6796,116.432 77.3462,103.932 94.5,97C 117.566,90.0704 128.066,98.5704 126,122.5C 128.789,125.129 130.789,124.462 132,120.5C 132.167,118 132.333,115.5 132.5,113C 132.727,108.167 131.893,103.667 130,99.5C 130.333,99.1667 130.667,98.8333 131,98.5C 132.833,101 134.667,103.5 136.5,106C 137.448,106.483 138.448,106.649 139.5,106.5C 138.214,99.9369 134.881,94.6035 129.5,90.5C 131.149,89.3523 132.649,88.019 134,86.5C 136.035,92.0694 139.202,96.9027 143.5,101C 146.072,103.287 149.072,104.453 152.5,104.5C 151.855,100.322 149.688,96.9886 146,94.5C 140.201,85.2268 139.201,75.5601 143,65.5C 148.669,59.7883 155.503,57.955 163.5,60C 165.067,62.741 167.401,63.9077 170.5,63.5C 170.661,60.4721 169.994,57.6388 168.5,55C 176.484,44.7475 186.818,41.4142 199.5,45C 207.818,47.6445 214.818,52.3112 220.5,59C 215.983,59.2632 211.649,60.2632 207.5,62C 203.886,65.1033 200.886,68.6033 198.5,72.5 Z"/></g>
<g><path style="opacity:1" fill="#f0b04d" d="M 198.5,72.5 C 197.363,76.4172 196.53,80.4172 196,84.5C 193.595,85.2744 191.095,85.7744 188.5,86C 187.894,90.8889 190.227,93.0556 195.5,92.5C 195.601,105.599 202.268,111.933 215.5,111.5C 215.5,109.167 215.5,106.833 215.5,104.5C 220.144,103.347 224.477,101.347 228.5,98.5C 230.441,101.334 233.107,102.168 236.5,101C 241.558,96.9429 246.892,93.2762 252.5,90C 255.067,87.6041 257.4,85.1041 259.5,82.5C 259.649,85.6074 259.149,88.6074 258,91.5C 255.203,95.2988 252.036,98.7988 248.5,102C 237.333,104.162 227.833,109.328 220,117.5C 212.27,114.035 204.436,113.702 196.5,116.5C 192.146,110.814 186.48,107.148 179.5,105.5C 178.469,104.751 177.302,104.085 176,103.5C 173.871,96.5385 174.537,89.8719 178,83.5C 182.801,79.701 187.301,75.5343 191.5,71C 192.729,70.2189 194.062,69.7189 195.5,69.5C 197.516,69.5159 198.516,70.5159 198.5,72.5 Z"/></g>
<g><path style="opacity:1" fill="#f9f8da" d="M 277.5,103.5 C 284.753,103.71 290.586,106.71 295,112.5C 294.712,119.464 294.545,126.464 294.5,133.5C 293.167,133.5 291.833,133.5 290.5,133.5C 291.598,132.603 291.598,131.77 290.5,131C 284.948,129.627 281.282,131.627 279.5,137C 280.056,137.383 280.389,137.883 280.5,138.5C 276.996,143.651 278.329,145.817 284.5,145C 288.423,142.207 292.756,140.207 297.5,139C 300.029,136.358 301.029,133.192 300.5,129.5C 310.676,130.009 316.343,135.342 317.5,145.5C 308.144,150.516 298.144,154.016 287.5,156C 285.867,156.48 284.534,157.313 283.5,158.5C 283.167,157.5 282.5,156.833 281.5,156.5C 281.611,155.883 281.944,155.383 282.5,155C 281,153.5 279.5,152 278,150.5C 277.667,150.833 277.333,151.167 277,151.5C 276.19,155.358 276.357,159.024 277.5,162.5C 278.167,163.833 278.833,165.167 279.5,166.5C 277.214,166.595 275.214,167.262 273.5,168.5C 268.93,169.441 264.263,169.774 259.5,169.5C 257.393,168.532 255.059,168.198 252.5,168.5C 251.833,168.5 251.5,168.167 251.5,167.5C 251.629,164.473 251.462,161.473 251,158.5C 248.877,158.034 247.377,156.867 246.5,155C 247.536,151.879 247.703,148.713 247,145.5C 245.398,142.016 244.232,138.349 243.5,134.5C 244.274,133.289 245.107,133.289 246,134.5C 249.147,131.683 251.98,128.516 254.5,125C 253.337,121.752 254.003,118.419 256.5,115C 258.329,114.727 259.829,113.893 261,112.5C 262.016,113.634 262.683,113.301 263,111.5C 263.419,112.672 264.085,113.672 265,114.5C 264.383,112.905 264.716,111.572 266,110.5C 266.718,111.451 267.551,111.617 268.5,111C 267.833,109.667 267.167,108.333 266.5,107C 269.76,107.482 273.093,107.482 276.5,107C 273.957,106.86 271.623,106.194 269.5,105C 271.937,103.625 274.603,103.125 277.5,103.5 Z"/></g>
<g><path style="opacity:1" fill="#f1f5e3" d="M 396.5,134.5 C 395.662,134.842 395.328,135.508 395.5,136.5C 395.5,137.167 395.167,137.5 394.5,137.5C 390.802,129.662 384.802,124.662 376.5,122.5C 377.147,114.384 381.48,111.551 389.5,114C 392.171,119.486 393.171,125.32 392.5,131.5C 393.833,131.5 395.167,131.5 396.5,131.5C 396.5,132.5 396.5,133.5 396.5,134.5 Z"/></g>
<g><path style="opacity:1" fill="#f7f7dc" d="M 221.5,135.5 C 220.883,135.611 220.383,135.944 220,136.5C 219.261,139.546 218.428,142.546 217.5,145.5C 215.287,147.86 212.621,149.694 209.5,151C 205.329,151.853 201.329,153.019 197.5,154.5C 195.5,154.5 193.5,154.5 191.5,154.5C 190.341,152.623 188.674,152.123 186.5,153C 185.937,158.043 183.27,161.376 178.5,163C 173.5,163.667 168.5,163.667 163.5,163C 155.106,160.574 151.439,154.908 152.5,146C 152.453,132.42 158.12,122.087 169.5,115C 183.564,111.993 190.564,117.493 190.5,131.5C 185.901,130.84 181.568,129.673 177.5,128C 176.426,128.739 175.759,129.739 175.5,131C 179.491,137.096 185.158,139.429 192.5,138C 195.542,137.445 197.375,135.612 198,132.5C 198.498,129.518 198.665,126.518 198.5,123.5C 207.186,121.213 214.686,123.213 221,129.5C 221.495,131.473 221.662,133.473 221.5,135.5 Z"/></g>
<g><path style="opacity:1" fill="#7acacf" d="M 396.5,134.5 C 396.5,133.5 396.5,132.5 396.5,131.5C 395.167,131.5 393.833,131.5 392.5,131.5C 393.171,125.32 392.171,119.486 389.5,114C 381.48,111.551 377.147,114.384 376.5,122.5C 374.719,117.677 376.053,113.844 380.5,111C 383.964,110.183 387.298,110.517 390.5,112C 393.476,115.142 395.809,118.642 397.5,122.5C 402.294,120.269 406.961,117.769 411.5,115C 425.199,114.043 430.032,120.21 426,133.5C 424.181,138.336 420.681,141.169 415.5,142C 412.167,142.667 408.833,142.667 405.5,142C 402.899,138.888 399.899,136.388 396.5,134.5 Z"/></g>
<g><path style="opacity:1" fill="#efefdc" d="M 232.5,135.5 C 231.5,135.5 230.5,135.5 229.5,135.5C 229.118,130.336 228.285,125.336 227,120.5C 230.639,117.099 234.805,114.932 239.5,114C 235.246,120.507 232.913,127.673 232.5,135.5 Z"/></g>
<g><path style="opacity:1" fill="#eceddb" d="M 349.5,97.5 C 347.855,98.4787 346.521,99.812 345.5,101.5C 344.692,101.192 344.025,100.692 343.5,100C 344.711,99.1072 344.711,98.2739 343.5,97.5C 339.913,95.732 336.247,95.3987 332.5,96.5C 334.078,97.2978 335.744,97.7978 337.5,98C 334.476,99.1133 332.643,101.28 332,104.5C 331.195,102.099 330.362,102.266 329.5,105C 327.527,105.495 325.527,105.662 323.5,105.5C 323.785,107.288 323.452,108.955 322.5,110.5C 319.518,114.181 317.518,118.015 316.5,122C 319.321,124.141 320.654,126.975 320.5,130.5C 315.236,128.07 313.403,124.07 315,118.5C 316.516,109.656 321.516,103.99 330,101.5C 330.711,99.6332 330.211,98.1332 328.5,97C 318.049,99.1234 311.882,105.623 310,116.5C 309.506,118.134 309.34,119.801 309.5,121.5C 307.5,121.167 305.5,120.833 303.5,120.5C 309.688,94.7391 325.022,87.0724 349.5,97.5 Z"/></g>
<g><path style="opacity:1" fill="#efb150" d="M 152.5,117.5 C 148.52,123.938 146.02,130.938 145,138.5C 134.367,132.201 123.534,131.867 112.5,137.5C 111.761,137.631 111.094,137.464 110.5,137C 116.968,130.106 124.968,127.106 134.5,128C 136.656,122.834 139.989,118.501 144.5,115C 146.833,114.333 149.167,114.333 151.5,115C 152.252,115.671 152.586,116.504 152.5,117.5 Z"/></g>
<g><path style="opacity:1" fill="#eac47c" d="M 290.5,133.5 C 286.604,134.115 283.27,135.781 280.5,138.5C 280.389,137.883 280.056,137.383 279.5,137C 281.282,131.627 284.948,129.627 290.5,131C 291.598,131.77 291.598,132.603 290.5,133.5 Z"/></g>
<g><path style="opacity:1" fill="#f6f6e2" d="M 277.5,103.5 C 274.603,103.125 271.937,103.625 269.5,105C 271.623,106.194 273.957,106.86 276.5,107C 273.093,107.482 269.76,107.482 266.5,107C 267.167,108.333 267.833,109.667 268.5,111C 267.551,111.617 266.718,111.451 266,110.5C 264.716,111.572 264.383,112.905 265,114.5C 264.085,113.672 263.419,112.672 263,111.5C 262.683,113.301 262.016,113.634 261,112.5C 259.829,113.893 258.329,114.727 256.5,115C 254.003,118.419 253.337,121.752 254.5,125C 251.98,128.516 249.147,131.683 246,134.5C 245.107,133.289 244.274,133.289 243.5,134.5C 244.232,138.349 245.398,142.016 247,145.5C 247.703,148.713 247.536,151.879 246.5,155C 247.377,156.867 248.877,158.034 251,158.5C 251.462,161.473 251.629,164.473 251.5,167.5C 246.571,163.323 243.404,157.99 242,151.5C 240.875,141.347 241.542,131.347 244,121.5C 250.743,106.883 261.91,100.883 277.5,103.5 Z"/></g>
<g><path style="opacity:1" fill="#ddb56f" d="M 221.5,135.5 C 222.581,138.627 223.247,141.96 223.5,145.5C 222.442,144.4 221.608,143.066 221,141.5C 220.34,143.324 219.173,144.657 217.5,145.5C 218.428,142.546 219.261,139.546 220,136.5C 220.383,135.944 220.883,135.611 221.5,135.5 Z"/></g>
<g><path style="opacity:1" fill="#d1a760" d="M 229.5,135.5 C 230.5,135.5 231.5,135.5 232.5,135.5C 232.467,139.869 232.8,144.202 233.5,148.5C 232.135,145.401 231.135,142.068 230.5,138.5C 229.525,141.152 228.192,143.486 226.5,145.5C 227.503,142.15 228.503,138.817 229.5,135.5 Z"/></g>
<g><path style="opacity:1" fill="#f0af48" d="M 71.5,134.5 C 74.4108,136.124 77.4108,137.457 80.5,138.5C 80.9175,139.222 81.5842,139.722 82.5,140C 88.5275,140.17 94.5275,140.67 100.5,141.5C 98.4138,142.489 96.7471,143.822 95.5,145.5C 92.2525,148.955 88.2525,150.455 83.5,150C 79.5422,147.766 76.0422,144.933 73,141.5C 72.023,139.26 71.523,136.927 71.5,134.5 Z"/></g>
<g><path style="opacity:1" fill="#e2bc76" d="M 80.5,138.5 C 88.1333,139.232 95.8,139.732 103.5,140C 104.056,140.383 104.389,140.883 104.5,141.5C 101.648,143.091 98.6484,144.424 95.5,145.5C 96.7471,143.822 98.4138,142.489 100.5,141.5C 94.5275,140.67 88.5275,140.17 82.5,140C 81.5842,139.722 80.9175,139.222 80.5,138.5 Z"/></g>
<g><path style="opacity:1" fill="#f6f5db" d="M 142.5,146.5 C 139.624,154.708 134.291,160.708 126.5,164.5C 113.728,164.61 109.561,158.943 114,147.5C 123.293,139.897 132.793,139.564 142.5,146.5 Z"/></g>
<g><path style="opacity:1" fill="#d2aa66" d="M 395.5,136.5 C 398.225,140.729 401.559,144.562 405.5,148C 397.98,148.758 394.314,145.258 394.5,137.5C 395.167,137.5 395.5,137.167 395.5,136.5 Z"/></g>
<g><path style="opacity:1" fill="#808d87" d="M 412.5,149.5 C 418.969,150.052 418.969,151.052 412.5,152.5C 412.5,151.5 412.5,150.5 412.5,149.5 Z"/></g>
<g><path style="opacity:1" fill="#f2af4a" d="M 314.5,157.5 C 313.452,161.719 310.785,164.553 306.5,166C 301.062,168.433 296.062,167.933 291.5,164.5C 290.024,161.963 288.024,159.963 285.5,158.5C 290.335,157.113 295.168,155.779 300,154.5C 301.768,158.325 303.768,158.325 306,154.5C 307.016,155.634 307.683,155.301 308,153.5C 308.333,154.5 308.667,155.5 309,156.5C 309.44,154.924 310.273,153.59 311.5,152.5C 311.291,151.914 310.957,151.414 310.5,151C 312.421,150.64 314.088,149.806 315.5,148.5C 316.505,149.11 316.338,149.776 315,150.5C 314.503,152.81 314.337,155.143 314.5,157.5 Z"/></g>
<g><path style="opacity:1" fill="#f3b14b" d="M 386.5,140.5 C 390.248,149.085 387.915,155.585 379.5,160C 371.821,163.568 363.821,165.235 355.5,165C 351.609,161.931 347.942,158.764 344.5,155.5C 342.025,156.677 341.025,158.677 341.5,161.5C 341.328,163.492 341.995,165.158 343.5,166.5C 335.361,169.061 327.027,170.728 318.5,171.5C 317.287,171.253 316.62,170.586 316.5,169.5C 319.083,166.003 321.416,162.336 323.5,158.5C 327.345,156.077 331.345,153.91 335.5,152C 343.096,151.245 350.596,151.745 358,153.5C 361.235,153.418 364.402,152.918 367.5,152C 374.83,149.675 381.164,145.841 386.5,140.5 Z"/></g>
<g><path style="opacity:1" fill="#6d5032" d="M 104.5,152.5 C 104.808,154.924 104.474,157.257 103.5,159.5C 102.893,159.376 102.56,159.043 102.5,158.5C 103.167,156.5 103.833,154.5 104.5,152.5 Z"/></g>
<g><path style="opacity:1" fill="#e9b359" d="M 317.5,145.5 C 317.416,149.837 316.416,153.837 314.5,157.5C 314.337,155.143 314.503,152.81 315,150.5C 316.338,149.776 316.505,149.11 315.5,148.5C 314.088,149.806 312.421,150.64 310.5,151C 310.957,151.414 311.291,151.914 311.5,152.5C 310.273,153.59 309.44,154.924 309,156.5C 308.667,155.5 308.333,154.5 308,153.5C 307.683,155.301 307.016,155.634 306,154.5C 303.768,158.325 301.768,158.325 300,154.5C 295.168,155.779 290.335,157.113 285.5,158.5C 288.024,159.963 290.024,161.963 291.5,164.5C 287.98,163.647 285.313,161.647 283.5,158.5C 284.534,157.313 285.867,156.48 287.5,156C 298.144,154.016 308.144,150.516 317.5,145.5 Z"/></g>
<g><path style="opacity:1" fill="#d5ad67" d="M 104.5,152.5 C 103.833,154.5 103.167,156.5 102.5,158.5C 99.9748,157.952 97.6415,156.952 95.5,155.5C 97.7588,153.455 100.259,151.789 103,150.5C 104.03,150.836 104.53,151.503 104.5,152.5 Z"/></g>
<g><path style="opacity:1" fill="#f3b04a" d="M 233.5,148.5 C 236.766,153.883 235.766,158.383 230.5,162C 223.054,165.908 215.054,167.575 206.5,167C 205.944,167.383 205.611,167.883 205.5,168.5C 204.751,169.531 204.085,170.698 203.5,172C 203.833,172.333 204.167,172.667 204.5,173C 198.442,173.739 192.442,173.406 186.5,172C 186.102,169.143 187.435,166.976 190.5,165.5C 191.386,164.675 191.719,163.675 191.5,162.5C 198.662,162.387 198.995,161.387 192.5,159.5C 193.246,158.264 193.579,156.93 193.5,155.5C 195.099,155.768 196.432,155.434 197.5,154.5C 201.329,153.019 205.329,151.853 209.5,151C 212.621,149.694 215.287,147.86 217.5,145.5C 219.173,144.657 220.34,143.324 221,141.5C 221.608,143.066 222.442,144.4 223.5,145.5C 224.5,145.5 225.5,145.5 226.5,145.5C 228.192,143.486 229.525,141.152 230.5,138.5C 231.135,142.068 232.135,145.401 233.5,148.5 Z"/></g>
<g><path style="opacity:1" fill="#ddb977" d="M 281.5,156.5 C 278.224,157.122 276.891,159.122 277.5,162.5C 276.357,159.024 276.19,155.358 277,151.5C 277.333,151.167 277.667,150.833 278,150.5C 279.5,152 281,153.5 282.5,155C 281.944,155.383 281.611,155.883 281.5,156.5 Z"/></g>
<g><path style="opacity:1" fill="#d5b272" d="M 394.5,153.5 C 404.697,154.746 404.363,156.413 393.5,158.5C 393.629,156.784 393.962,155.117 394.5,153.5 Z"/></g>
<g><path style="opacity:1" fill="#deac5a" d="M 191.5,154.5 C 193.5,154.5 195.5,154.5 197.5,154.5C 196.432,155.434 195.099,155.768 193.5,155.5C 193.579,156.93 193.246,158.264 192.5,159.5C 198.995,161.387 198.662,162.387 191.5,162.5C 191.719,163.675 191.386,164.675 190.5,165.5C 187.435,166.976 186.102,169.143 186.5,172C 192.442,173.406 198.442,173.739 204.5,173C 204.167,172.667 203.833,172.333 203.5,172C 204.085,170.698 204.751,169.531 205.5,168.5C 205.537,171.702 207.203,173.368 210.5,173.5C 205.025,174.489 199.358,174.822 193.5,174.5C 189.846,174.058 186.179,173.724 182.5,173.5C 181.449,172.778 180.782,171.778 180.5,170.5C 188.135,167.869 191.802,162.536 191.5,154.5 Z"/></g>
<g><path style="opacity:1" fill="#ebaf4f" d="M 142.5,146.5 C 143.458,146.953 144.292,147.619 145,148.5C 145.115,155.019 147.281,160.686 151.5,165.5C 151.953,166.458 152.619,167.292 153.5,168C 151.19,168.497 148.857,168.663 146.5,168.5C 139.51,168.175 132.843,166.841 126.5,164.5C 134.291,160.708 139.624,154.708 142.5,146.5 Z"/></g>
<g><path style="opacity:1" fill="#88897f" d="M 238.5,164.5 C 239.688,166.496 239.021,167.329 236.5,167C 237.381,166.292 238.047,165.458 238.5,164.5 Z"/></g>
<g><path style="opacity:1" fill="#d4b989" d="M 151.5,165.5 C 155.033,166.374 158.366,167.707 161.5,169.5C 161.158,170.338 160.492,170.672 159.5,170.5C 154.951,170.376 150.618,169.709 146.5,168.5C 148.857,168.663 151.19,168.497 153.5,168C 152.619,167.292 151.953,166.458 151.5,165.5 Z"/></g>
<g><path style="opacity:1" fill="#d6a95f" d="M 341.5,161.5 C 343.114,163.456 344.781,165.456 346.5,167.5C 336.016,170.801 325.349,172.135 314.5,171.5C 314.855,170.478 315.522,169.811 316.5,169.5C 316.62,170.586 317.287,171.253 318.5,171.5C 327.027,170.728 335.361,169.061 343.5,166.5C 341.995,165.158 341.328,163.492 341.5,161.5 Z"/></g>
<g><path style="opacity:0.996" fill="#6d6e66" d="M 161.5,169.5 C 162.922,169.709 164.255,170.209 165.5,171C 163.288,171.789 161.288,171.622 159.5,170.5C 160.492,170.672 161.158,170.338 161.5,169.5 Z"/></g>
<g><path style="opacity:1" fill="#8f714b" d="M 180.5,170.5 C 180.782,171.778 181.449,172.778 182.5,173.5C 180.571,173.769 178.905,173.269 177.5,172C 178.244,170.961 179.244,170.461 180.5,170.5 Z"/></g>
<g><path style="opacity:0.996" fill="#e3e5d7" d="M 246.5,174.5 C 243.167,175.833 239.833,175.833 236.5,174.5C 238.941,173.443 241.275,172.11 243.5,170.5C 244.524,171.852 245.524,173.185 246.5,174.5 Z"/></g>
<g><path style="opacity:1" fill="#902c33" d="M 385.5,171.5 C 382.781,172.913 379.781,173.58 376.5,173.5C 379.219,172.087 382.219,171.42 385.5,171.5 Z"/></g>
<g><path style="opacity:1" fill="#7cced2" d="M 365.5,185.5 C 365.789,181.648 367.123,178.314 369.5,175.5C 371.786,175.405 373.786,174.738 375.5,173.5C 375.833,173.5 376.167,173.5 376.5,173.5C 379.781,173.58 382.781,172.913 385.5,171.5C 396.957,168.632 408.29,165.132 419.5,161C 422.562,159.939 425.062,158.106 427,155.5C 429.265,159.079 428.765,162.246 425.5,165C 406.625,175.125 386.625,181.958 365.5,185.5 Z"/></g>
<g><path style="opacity:1" fill="#564130" d="M 210.5,173.5 C 211.675,173.281 212.675,173.614 213.5,174.5C 206.678,175.818 200.011,175.818 193.5,174.5C 199.358,174.822 205.025,174.489 210.5,173.5 Z"/></g>
<g><path style="opacity:1" fill="#dabb8e" d="M 220.5,173.5 C 222.288,173.215 223.955,173.548 225.5,174.5C 224.667,174.833 223.833,175.167 223,175.5C 221.624,175.316 220.791,174.649 220.5,173.5 Z"/></g>
<g><path style="opacity:1" fill="#d6aa5f" d="M 279.5,166.5 C 283.083,169.567 287.083,172.067 291.5,174C 280.196,175.388 268.863,175.721 257.5,175C 255.21,173.223 253.543,171.056 252.5,168.5C 255.059,168.198 257.393,168.532 259.5,169.5C 256.029,169.899 255.696,171.399 258.5,174C 267.22,174.839 275.887,174.505 284.5,173C 282.416,171.252 280.416,169.418 278.5,167.5C 276.929,168.309 275.262,168.643 273.5,168.5C 275.214,167.262 277.214,166.595 279.5,166.5 Z"/></g>
<g><path style="opacity:1" fill="#f4b049" d="M 259.5,169.5 C 264.263,169.774 268.93,169.441 273.5,168.5C 275.262,168.643 276.929,168.309 278.5,167.5C 280.416,169.418 282.416,171.252 284.5,173C 275.887,174.505 267.22,174.839 258.5,174C 255.696,171.399 256.029,169.899 259.5,169.5 Z"/></g>
<g><path style="opacity:1" fill="#93654f" d="M 375.5,173.5 C 373.786,174.738 371.786,175.405 369.5,175.5C 368.167,175.5 366.833,175.5 365.5,175.5C 368.544,173.989 371.878,173.322 375.5,173.5 Z"/></g>
<g><path style="opacity:1" fill="#63635c" d="M 236.5,174.5 C 239.833,175.833 243.167,175.833 246.5,174.5C 247.289,174.783 247.956,175.283 248.5,176C 244.129,176.828 239.795,176.661 235.5,175.5C 235.624,174.893 235.957,174.56 236.5,174.5 Z"/></g>
<g><path style="opacity:1" fill="#f4f4da" d="M 365.5,175.5 C 366.833,175.5 368.167,175.5 369.5,175.5C 367.123,178.314 365.789,181.648 365.5,185.5C 293.797,198.06 221.797,199.894 149.5,191C 122.188,188.451 96.8546,180.118 73.5,166C 69.158,163.126 68.4913,159.626 71.5,155.5C 79.4434,161.306 88.11,165.806 97.5,169C 133.115,179.136 169.448,184.802 206.5,186C 259.897,188.041 312.897,184.541 365.5,175.5 Z"/></g>
<g><path style="opacity:1" fill="#73c1c6" d="M 84.5,191.5 C 81.8652,187.857 79.1985,184.19 76.5,180.5C 76.369,179.761 76.5357,179.094 77,178.5C 79.0344,180.032 81.2011,181.365 83.5,182.5C 84.2592,185.157 84.9258,187.823 85.5,190.5C 85.3764,191.107 85.0431,191.44 84.5,191.5 Z"/></g>
<g><path style="opacity:1" fill="#771220" d="M 409.5,197.5 C 409.663,195.143 409.497,192.81 409,190.5C 408.617,191.056 408.117,191.389 407.5,191.5C 407.5,188.5 407.5,185.5 407.5,182.5C 408.5,182.5 409.5,182.5 410.5,182.5C 410.821,187.695 410.487,192.695 409.5,197.5 Z"/></g>
<g><path style="opacity:1" fill="#7bc9cd" d="M 151.5,208.5 C 141.381,207.969 131.381,206.635 121.5,204.5C 117.099,202.656 112.433,201.323 107.5,200.5C 107.335,197.482 107.502,194.482 108,191.5C 122.206,195.641 136.706,198.308 151.5,199.5C 151.5,202.5 151.5,205.5 151.5,208.5 Z"/></g>
<g><path style="opacity:1" fill="#5f0413" d="M 353.5,212.5 C 353.5,210.167 353.5,207.833 353.5,205.5C 344.108,206.682 334.775,208.015 325.5,209.5C 325.216,206.223 325.549,203.057 326.5,200C 336.209,199.078 345.876,197.911 355.5,196.5C 355.473,202.051 354.806,207.384 353.5,212.5 Z"/></g>
<g><path style="opacity:1" fill="#7c1524" d="M 406.5,193.5 C 406.666,197.514 406.499,201.514 406,205.5C 405.768,206.737 405.268,207.737 404.5,208.5C 404.934,203.332 405.6,198.332 406.5,193.5 Z"/></g>
<g><path style="opacity:1" fill="#45050f" d="M 175.5,210.5 C 174.717,208.657 174.05,206.657 173.5,204.5C 168.523,203.593 163.523,202.927 158.5,202.5C 158.5,205.167 158.5,207.833 158.5,210.5C 157.419,207.373 156.753,204.04 156.5,200.5C 162.511,200.801 168.511,201.301 174.5,202C 175.444,204.719 175.777,207.552 175.5,210.5 Z"/></g>
<g><path style="opacity:1" fill="#640213" d="M 175.5,210.5 C 175.557,211.609 175.89,212.609 176.5,213.5C 175.508,213.672 174.842,213.338 174.5,212.5C 171.628,211.675 168.628,210.841 165.5,210C 167.769,209.242 169.936,209.409 172,210.5C 173.23,209.725 173.563,208.725 173,207.5C 168.074,208.299 163.241,209.299 158.5,210.5C 158.5,207.833 158.5,205.167 158.5,202.5C 163.523,202.927 168.523,203.593 173.5,204.5C 174.05,206.657 174.717,208.657 175.5,210.5 Z"/></g>
<g><path style="opacity:1" fill="#6d0618" d="M 221.5,215.5 C 219.167,215.5 216.833,215.5 214.5,215.5C 204.11,215.614 193.777,214.948 183.5,213.5C 184.912,222.666 185.578,231.999 185.5,241.5C 183.741,232.723 182.741,223.723 182.5,214.5C 182.5,211.5 182.5,208.5 182.5,205.5C 185.167,205.5 187.833,205.5 190.5,205.5C 190.643,208.097 191.477,210.431 193,212.5C 193.725,211.941 194.558,211.608 195.5,211.5C 196.786,211.852 197.619,212.518 198,213.5C 200.028,212.032 201.862,212.199 203.5,214C 209.681,214.172 215.681,214.672 221.5,215.5 Z"/></g>
<g><path style="opacity:1" fill="#9a1b2c" d="M 106.5,232.5 C 104.824,233.183 104.157,234.517 104.5,236.5C 101.579,220.645 98.9124,204.645 96.5,188.5C 97.5,188.5 98.5,188.5 99.5,188.5C 102.156,203.064 104.489,217.731 106.5,232.5 Z"/></g>
<g><path style="opacity:1" fill="#510611" d="M 251.5,215.5 C 241.5,215.5 231.5,215.5 221.5,215.5C 215.681,214.672 209.681,214.172 203.5,214C 201.862,212.199 200.028,212.032 198,213.5C 197.619,212.518 196.786,211.852 195.5,211.5C 194.558,211.608 193.725,211.941 193,212.5C 191.477,210.431 190.643,208.097 190.5,205.5C 187.833,205.5 185.167,205.5 182.5,205.5C 182.5,208.5 182.5,211.5 182.5,214.5C 181.518,211.038 181.185,207.371 181.5,203.5C 204.801,205.08 228.134,206.08 251.5,206.5C 251.5,209.5 251.5,212.5 251.5,215.5 Z"/></g>
<g><path style="opacity:1" fill="#850b1e" d="M 174.5,212.5 C 169.507,212.084 164.507,211.751 159.5,211.5C 161.317,218.702 162.317,226.035 162.5,233.5C 160.437,226.087 159.104,218.421 158.5,210.5C 163.241,209.299 168.074,208.299 173,207.5C 173.563,208.725 173.23,209.725 172,210.5C 169.936,209.409 167.769,209.242 165.5,210C 168.628,210.841 171.628,211.675 174.5,212.5 Z"/></g>
<g><path style="opacity:1" fill="#f8f9e6" d="M 361.5,205.5 C 361.5,205.167 361.5,204.833 361.5,204.5C 362.833,204.5 364.167,204.5 365.5,204.5C 367.5,204.5 369.5,204.5 371.5,204.5C 371.165,212.374 369.999,220.041 368,227.5C 367.768,226.263 367.268,225.263 366.5,224.5C 365.067,218.856 364.067,212.522 363.5,205.5C 362.833,205.5 362.167,205.5 361.5,205.5 Z"/></g>
<g><path style="opacity:1" fill="#fafadd" d="M 121.5,204.5 C 131.381,206.635 141.381,207.969 151.5,208.5C 152.117,208.611 152.617,208.944 153,209.5C 163.404,283.733 172.904,358.067 181.5,432.5C 181.813,436.042 181.479,439.375 180.5,442.5C 179.504,442.414 178.671,442.748 178,443.5C 177.784,441.616 177.117,439.949 176,438.5C 175.667,441.833 175.333,445.167 175,448.5C 171.862,451.174 168.362,452.174 164.5,451.5C 163.738,452.628 163.071,453.795 162.5,455C 155.96,457.468 155.127,456.301 160,451.5C 160.167,449.167 160.333,446.833 160.5,444.5C 159.199,439.377 158.532,434.377 158.5,429.5C 156.821,429.715 155.821,429.048 155.5,427.5C 156.876,425.918 157.876,424.085 158.5,422C 158.43,421.235 158.097,420.735 157.5,420.5C 155.591,418.127 153.758,418.127 152,420.5C 151.667,420.167 151.333,419.833 151,419.5C 150.196,414.249 150.363,409.082 151.5,404C 149.956,403.71 148.623,403.044 147.5,402C 147.061,395.861 147.061,389.527 147.5,383C 146.552,382.517 145.552,382.351 144.5,382.5C 143.175,377.781 142.175,372.948 141.5,368C 142.217,365.997 142.55,363.831 142.5,361.5C 141.271,360.719 139.938,360.219 138.5,360C 139.116,358.6 139.449,357.1 139.5,355.5C 138.189,351.593 137.522,347.593 137.5,343.5C 141.167,343.5 144.833,343.5 148.5,343.5C 148.777,340.552 148.444,337.719 147.5,335C 144.805,334.746 142.305,334.579 140,334.5C 139.667,335.833 139.333,337.167 139,338.5C 137.559,335.953 137.059,333.453 137.5,331C 135.475,329.806 135.141,328.306 136.5,326.5C 135.413,320.221 134.58,313.887 134,307.5C 133.086,308.654 132.253,308.487 131.5,307C 132.479,305.221 132.146,303.555 130.5,302C 132.88,300.274 135.38,299.774 138,300.5C 138.5,298 139,295.5 139.5,293C 135.054,290.78 130.887,291.28 127,294.5C 126.153,291.51 127.32,290.176 130.5,290.5C 130.58,284.651 128.914,279.318 125.5,274.5C 124.997,269.024 123.664,263.858 121.5,259C 123.191,251.887 122.191,245.22 118.5,239C 119.435,236.619 119.768,234.119 119.5,231.5C 118.178,231.67 117.011,231.337 116,230.5C 115.073,226.738 115.573,223.238 117.5,220C 116.713,217.901 116.38,215.734 116.5,213.5C 118.924,213.808 121.257,213.474 123.5,212.5C 122.833,211.167 122.167,209.833 121.5,208.5C 119.994,207.253 118.494,207.253 117,208.5C 115.149,206.219 113.482,206.219 112,208.5C 111.89,206.152 110.723,204.652 108.5,204C 111.552,203.451 114.219,204.284 116.5,206.5C 117.696,206.154 117.696,205.654 116.5,205C 118.134,204.506 119.801,204.34 121.5,204.5 Z"/></g>
<g><path style="opacity:1" fill="#84cbd0" d="M 319.5,209.5 C 298.912,212.049 278.245,213.716 257.5,214.5C 257.5,211.5 257.5,208.5 257.5,205.5C 278.22,204.961 298.887,203.628 319.5,201.5C 319.5,204.167 319.5,206.833 319.5,209.5 Z"/></g>
<g><path style="opacity:1" fill="#fafbdd" d="M 318.5,215.5 C 313.821,288.984 309.155,362.317 304.5,435.5C 295.663,442.833 286.663,450 277.5,457C 276.255,457.791 274.922,458.291 273.5,458.5C 272.305,458.678 271.138,459.011 270,459.5C 268.287,458.863 268.121,457.863 269.5,456.5C 266.388,455.017 263.555,455.35 261,457.5C 260.71,455.956 260.044,454.623 259,453.5C 258.667,454.167 258.333,454.833 258,455.5C 257.333,451.167 257.333,446.833 258,442.5C 258.333,445.833 258.667,449.167 259,452.5C 260.37,442.223 260.87,431.889 260.5,421.5C 263.167,421.5 265.833,421.5 268.5,421.5C 268.5,415.833 268.5,410.167 268.5,404.5C 266.5,404.167 264.5,403.833 262.5,403.5C 262.334,398.156 262.501,392.823 263,387.5C 265.069,386.736 267.236,386.236 269.5,386C 268.659,380.857 268.659,375.357 269.5,369.5C 272.247,369.813 274.914,369.48 277.5,368.5C 277.417,366.908 277.751,365.241 278.5,363.5C 276.643,361.482 274.476,359.815 272,358.5C 271.29,359.973 270.124,360.64 268.5,360.5C 269.352,349.074 269.352,337.741 268.5,326.5C 265.881,326.232 263.381,326.565 261,327.5C 260.37,320.982 261.537,314.816 264.5,309C 263.745,307.026 263.078,304.692 262.5,302C 262.439,299.739 263.106,297.739 264.5,296C 262.92,292.986 262.42,289.486 263,285.5C 264.264,283.393 266.097,282.393 268.5,282.5C 268.566,267.964 268.566,253.631 268.5,239.5C 265.278,239.892 262.278,239.392 259.5,238C 258.823,233.631 258.823,229.131 259.5,224.5C 260.167,226.5 260.833,228.5 261.5,230.5C 262.89,227.444 263.89,224.444 264.5,221.5C 266.059,220.926 267.559,220.26 269,219.5C 271.77,220.325 274.437,220.659 277,220.5C 278.53,219.364 279.863,218.364 281,217.5C 281.519,218.516 282.353,219.182 283.5,219.5C 286.14,218.882 288.973,218.882 292,219.5C 294.317,218.297 296.65,216.963 299,215.5C 300.388,216.554 301.888,216.72 303.5,216C 302.953,215.075 302.287,214.242 301.5,213.5C 300.391,214.59 299.391,214.59 298.5,213.5C 300.484,212.294 302.484,212.294 304.5,213.5C 305.308,213.192 305.975,212.692 306.5,212C 310.486,211.501 314.486,211.334 318.5,211.5C 318.5,212.833 318.5,214.167 318.5,215.5 Z"/></g>
<g><path style="opacity:0.996" fill="#dceade" d="M 368.5,253.5 C 369.148,248.172 369.315,242.838 369,237.5C 367.784,235.038 367.118,232.371 367,229.5C 366.617,230.056 366.117,230.389 365.5,230.5C 365.325,228.379 365.659,226.379 366.5,224.5C 367.268,225.263 367.768,226.263 368,227.5C 369.999,220.041 371.165,212.374 371.5,204.5C 369.5,204.5 367.5,204.5 365.5,204.5C 368.219,203.087 371.219,202.42 374.5,202.5C 373.549,219.769 371.549,236.769 368.5,253.5 Z"/></g>
<g><path style="opacity:1" fill="#ea162e" d="M 214.5,215.5 C 226.655,216.495 238.989,216.829 251.5,216.5C 251.5,249.833 251.5,283.167 251.5,316.5C 244.931,317.226 238.597,318.726 232.5,321C 224.5,321.667 216.5,321.667 208.5,321C 203.641,319.191 198.641,318.024 193.5,317.5C 193.167,317.5 192.833,317.5 192.5,317.5C 192.666,312.821 192.499,308.155 192,303.5C 191.79,301.942 191.29,300.609 190.5,299.5C 189.668,289.515 189.001,279.515 188.5,269.5C 188.083,260.833 187.583,252.166 187,243.5C 186.722,242.584 186.222,241.918 185.5,241.5C 185.578,231.999 184.912,222.666 183.5,213.5C 193.777,214.948 204.11,215.614 214.5,215.5 Z"/></g>
<g><path style="opacity:1" fill="#eac5b0" d="M 363.5,205.5 C 364.067,212.522 365.067,218.856 366.5,224.5C 365.659,226.379 365.325,228.379 365.5,230.5C 363.252,235.037 361.585,239.704 360.5,244.5C 361.445,231.494 362.445,218.494 363.5,205.5 Z"/></g>
<g><path style="opacity:1" fill="#891b29" d="M 360.5,209.5 C 360.679,215.404 360.012,221.071 358.5,226.5C 358.321,220.596 358.988,214.929 360.5,209.5 Z"/></g>
<g><path style="opacity:1" fill="#a21f31" d="M 352.5,222.5 C 352.048,227.998 351.381,233.331 350.5,238.5C 350.334,234.154 350.501,229.821 351,225.5C 351.232,224.263 351.732,223.263 352.5,222.5 Z"/></g>
<g><path style="opacity:1" fill="#620d1a" d="M 325.5,209.5 C 325.65,216.721 324.983,223.721 323.5,230.5C 323.578,223.3 324.245,216.3 325.5,209.5 Z"/></g>
<g><path style="opacity:1" fill="#bd1c31" d="M 409.5,197.5 C 407.687,213.996 405.687,230.329 403.5,246.5C 403.664,243.813 403.497,241.146 403,238.5C 402.243,240.315 401.41,241.981 400.5,243.5C 401.57,231.756 402.903,220.089 404.5,208.5C 405.268,207.737 405.768,206.737 406,205.5C 406.499,201.514 406.666,197.514 406.5,193.5C 406.328,192.508 406.662,191.842 407.5,191.5C 408.117,191.389 408.617,191.056 409,190.5C 409.497,192.81 409.663,195.143 409.5,197.5 Z"/></g>
<g><path style="opacity:1" fill="#b21b2f" d="M 162.5,234.5 C 163.117,234.611 163.617,234.944 164,235.5C 165.204,246.17 166.371,256.837 167.5,267.5C 166.778,267.082 166.278,266.416 166,265.5C 164.431,255.211 163.264,244.877 162.5,234.5 Z"/></g>
<g><path style="opacity:1" fill="#cd1c34" d="M 106.5,232.5 C 106.401,235.237 106.735,237.904 107.5,240.5C 108.005,243.841 108.172,247.174 108,250.5C 107.302,247.996 106.469,245.663 105.5,243.5C 105.326,241.139 104.993,238.806 104.5,236.5C 104.157,234.517 104.824,233.183 106.5,232.5 Z"/></g>
<g><path style="opacity:1" fill="#b11c2f" d="M 185.5,241.5 C 186.222,241.918 186.722,242.584 187,243.5C 187.583,252.166 188.083,260.833 188.5,269.5C 186.784,260.384 185.784,251.05 185.5,241.5 Z"/></g>
<g><path style="opacity:1" fill="#e91932" d="M 403.5,246.5 C 403.5,246.833 403.5,247.167 403.5,247.5C 402.549,248.919 402.216,250.585 402.5,252.5C 401.883,252.611 401.383,252.944 401,253.5C 400.502,250.183 400.335,246.85 400.5,243.5C 401.41,241.981 402.243,240.315 403,238.5C 403.497,241.146 403.664,243.813 403.5,246.5 Z"/></g>
<g><path style="opacity:1" fill="#e0142c" d="M 353.5,212.5 C 353.384,215.86 353.051,219.193 352.5,222.5C 351.732,223.263 351.232,224.263 351,225.5C 350.501,229.821 350.334,234.154 350.5,238.5C 350.354,242.519 350.021,246.519 349.5,250.5C 347.866,257.949 346.866,265.615 346.5,273.5C 346.5,273.833 346.5,274.167 346.5,274.5C 344.631,276.576 342.464,276.909 340,275.5C 339.167,276.333 338.333,277.167 337.5,278C 332.511,278.499 327.511,278.666 322.5,278.5C 322.723,271.16 323.056,263.827 323.5,256.5C 323.5,251.167 323.5,245.833 323.5,240.5C 323.5,237.167 323.5,233.833 323.5,230.5C 324.983,223.721 325.65,216.721 325.5,209.5C 334.775,208.015 344.108,206.682 353.5,205.5C 353.5,207.833 353.5,210.167 353.5,212.5 Z"/></g>
<g><path style="opacity:1" fill="#628f92" d="M 415.5,239.5 C 415.877,244.453 415.211,249.119 413.5,253.5C 413.813,248.647 414.479,243.98 415.5,239.5 Z"/></g>
<g><path style="opacity:1" fill="#a11d2f" d="M 107.5,240.5 C 109.527,248.637 111.194,256.971 112.5,265.5C 111.839,264.282 111.172,262.949 110.5,261.5C 110.167,262.167 109.833,262.833 109.5,263.5C 110.375,267.787 110.708,272.121 110.5,276.5C 108.905,265.607 107.238,254.607 105.5,243.5C 106.469,245.663 107.302,247.996 108,250.5C 108.172,247.174 108.005,243.841 107.5,240.5 Z"/></g>
<g><path style="opacity:1" fill="#771321" d="M 323.5,240.5 C 323.5,245.833 323.5,251.167 323.5,256.5C 322.833,259.5 322.167,262.5 321.5,265.5C 321.655,256.978 322.322,248.644 323.5,240.5 Z"/></g>
<g><path style="opacity:1" fill="#a61a2d" d="M 177.5,231.5 C 179.407,242.607 180.407,253.94 180.5,265.5C 177.975,254.448 176.975,243.115 177.5,231.5 Z"/></g>
<g><path style="opacity:1" fill="#480c14" d="M 403.5,247.5 C 403.877,252.453 403.211,257.119 401.5,261.5C 401.704,258.482 402.037,255.482 402.5,252.5C 402.216,250.585 402.549,248.919 403.5,247.5 Z"/></g>
<g><path style="opacity:1" fill="#e6b5a2" d="M 359.5,251.5 C 359.679,257.404 359.012,263.071 357.5,268.5C 357.45,262.611 358.116,256.944 359.5,251.5 Z"/></g>
<g><path style="opacity:1" fill="#2d0909" d="M 349.5,250.5 C 350.055,258.538 349.055,266.205 346.5,273.5C 346.866,265.615 347.866,257.949 349.5,250.5 Z"/></g>
<g><path style="opacity:1" fill="#b71e32" d="M 400.5,243.5 C 400.335,246.85 400.502,250.183 401,253.5C 401.383,252.944 401.883,252.611 402.5,252.5C 402.037,255.482 401.704,258.482 401.5,261.5C 401.72,266.1 401.054,270.433 399.5,274.5C 399.5,273.167 399.5,271.833 399.5,270.5C 398.5,270.5 397.5,270.5 396.5,270.5C 397.315,261.289 398.649,252.289 400.5,243.5 Z"/></g>
<g><path style="opacity:1" fill="#950e22" d="M 214.5,215.5 C 216.833,215.5 219.167,215.5 221.5,215.5C 231.5,215.5 241.5,215.5 251.5,215.5C 252.499,301.332 252.833,387.332 252.5,473.5C 252.167,473.5 251.833,473.5 251.5,473.5C 251.5,441.5 251.5,409.5 251.5,377.5C 251.5,357.167 251.5,336.833 251.5,316.5C 251.5,283.167 251.5,249.833 251.5,216.5C 238.989,216.829 226.655,216.495 214.5,215.5 Z"/></g>
<g><path style="opacity:1" fill="#c11929" d="M 361.5,205.5 C 362.167,205.5 362.833,205.5 363.5,205.5C 362.445,218.494 361.445,231.494 360.5,244.5C 360.007,246.806 359.674,249.139 359.5,251.5C 358.116,256.944 357.45,262.611 357.5,268.5C 356.5,277.166 355.5,285.833 354.5,294.5C 353.883,294.611 353.383,294.944 353,295.5C 352.501,289.843 352.334,284.176 352.5,278.5C 353.748,260.944 355.748,243.611 358.5,226.5C 360.012,221.071 360.679,215.404 360.5,209.5C 360.232,207.901 360.566,206.568 361.5,205.5 Z"/></g>
<g><path style="opacity:1" fill="#9b1c2d" d="M 167.5,268.5 C 168.81,274.288 169.477,280.288 169.5,286.5C 168.054,280.726 167.388,274.726 167.5,268.5 Z"/></g>
<g><path style="opacity:1" fill="#bc0a21" d="M 323.5,256.5 C 323.056,263.827 322.723,271.16 322.5,278.5C 327.511,278.666 332.511,278.499 337.5,278C 338.333,277.167 339.167,276.333 340,275.5C 342.464,276.909 344.631,276.576 346.5,274.5C 343.32,296.457 340.653,318.457 338.5,340.5C 336.888,351.327 335.555,362.327 334.5,373.5C 333.006,384.789 332.006,396.123 331.5,407.5C 326.82,412.685 321.82,417.851 316.5,423C 315.551,423.617 314.718,423.451 314,422.5C 314.166,404.833 314.666,387.167 315.5,369.5C 315.5,368.167 315.5,366.833 315.5,365.5C 318.072,346.732 319.406,327.732 319.5,308.5C 319.5,307.833 319.5,307.167 319.5,306.5C 320.326,301.684 320.826,296.684 321,291.5C 321.5,291 322,290.5 322.5,290C 321.519,282.587 321.186,275.087 321.5,267.5C 321.5,266.833 321.5,266.167 321.5,265.5C 322.167,262.5 322.833,259.5 323.5,256.5 Z"/></g>
<g><path style="opacity:1" fill="#801525" d="M 321.5,267.5 C 321.186,275.087 321.519,282.587 322.5,290C 322,290.5 321.5,291 321,291.5C 320.826,296.684 320.326,301.684 319.5,306.5C 319.356,293.305 320.023,280.305 321.5,267.5 Z"/></g>
<g><path style="opacity:1" fill="#911425" d="M 112.5,265.5 C 114.313,273.983 115.647,282.65 116.5,291.5C 114.038,283.171 112.704,274.505 112.5,265.5 Z"/></g>
<g><path style="opacity:1" fill="#781322" d="M 395.5,275.5 C 395.665,278.85 395.498,282.183 395,285.5C 394.768,286.737 394.268,287.737 393.5,288.5C 393.77,283.972 394.437,279.639 395.5,275.5 Z"/></g>
<g><path style="opacity:1" fill="#9c1729" d="M 181.5,269.5 C 182.921,277.291 183.587,285.291 183.5,293.5C 181.731,285.743 181.065,277.743 181.5,269.5 Z"/></g>
<g><path style="opacity:1" fill="#9a1e29" d="M 352.5,278.5 C 352.334,284.176 352.501,289.843 353,295.5C 353.383,294.944 353.883,294.611 354.5,294.5C 354.149,298.684 353.482,302.684 352.5,306.5C 352.664,303.813 352.497,301.146 352,298.5C 350.934,302.637 349.767,306.637 348.5,310.5C 350.572,299.819 351.906,289.153 352.5,278.5 Z"/></g>
<g><path style="opacity:1" fill="#450b12" d="M 398.5,287.5 C 398.698,292.75 398.031,297.75 396.5,302.5C 396.608,297.29 397.275,292.29 398.5,287.5 Z"/></g>
<g><path style="opacity:1" fill="#90192a" d="M 111.5,282.5 C 113.288,289.941 114.621,297.608 115.5,305.5C 114.113,303.123 113.279,300.457 113,297.5C 112.499,292.492 111.999,287.492 111.5,282.5 Z"/></g>
<g><path style="opacity:1" fill="#5e0e1a" d="M 393.5,291.5 C 393.678,295.122 393.011,298.456 391.5,301.5C 391.549,297.922 392.215,294.589 393.5,291.5 Z"/></g>
<g><path style="opacity:1" fill="#480a13" d="M 169.5,291.5 C 170.657,294.273 171.324,297.273 171.5,300.5C 171.5,303.167 171.5,305.833 171.5,308.5C 170.482,303.016 169.816,297.349 169.5,291.5 Z"/></g>
<g><path style="opacity:1" fill="#c51d2c" d="M 352.5,306.5 C 351.698,317.375 350.365,328.041 348.5,338.5C 347.518,335.038 347.185,331.371 347.5,327.5C 347.447,321.804 347.78,316.138 348.5,310.5C 349.767,306.637 350.934,302.637 352,298.5C 352.497,301.146 352.664,303.813 352.5,306.5 Z"/></g>
<g><path style="opacity:1" fill="#d3172d" d="M 112.5,265.5 C 112.704,274.505 114.038,283.171 116.5,291.5C 118.811,299.921 120.477,308.587 121.5,317.5C 122.042,326.426 123.375,335.093 125.5,343.5C 125.391,346.899 124.058,349.566 121.5,351.5C 120.112,344.56 119.112,337.56 118.5,330.5C 118.223,323.263 117.223,316.263 115.5,309.5C 115.5,308.167 115.5,306.833 115.5,305.5C 114.621,297.608 113.288,289.941 111.5,282.5C 110.85,280.565 110.517,278.565 110.5,276.5C 110.708,272.121 110.375,267.787 109.5,263.5C 109.833,262.833 110.167,262.167 110.5,261.5C 111.172,262.949 111.839,264.282 112.5,265.5 Z"/></g>
<g><path style="opacity:1" fill="#851726" d="M 391.5,303.5 C 391.771,308.434 391.104,313.1 389.5,317.5C 389.69,312.63 390.356,307.964 391.5,303.5 Z"/></g>
<g><path style="opacity:1" fill="#630e1b" d="M 190.5,299.5 C 191.29,300.609 191.79,301.942 192,303.5C 192.499,308.155 192.666,312.821 192.5,317.5C 191.585,311.669 190.918,305.669 190.5,299.5 Z"/></g>
<g><path style="opacity:1" fill="#5e0e1a" d="M 115.5,309.5 C 117.223,316.263 118.223,323.263 118.5,330.5C 116.492,323.776 115.492,316.776 115.5,309.5 Z"/></g>
<g><path style="opacity:1" fill="#d71229" d="M 174.5,212.5 C 174.842,213.338 175.508,213.672 176.5,213.5C 176.425,219.529 176.759,225.529 177.5,231.5C 176.975,243.115 177.975,254.448 180.5,265.5C 181.434,266.568 181.768,267.901 181.5,269.5C 181.065,277.743 181.731,285.743 183.5,293.5C 183.5,294.167 183.5,294.833 183.5,295.5C 183.334,301.842 183.5,308.175 184,314.5C 185.006,328.698 186.506,342.698 188.5,356.5C 190.005,367.69 191.339,379.023 192.5,390.5C 192.334,396.176 192.501,401.843 193,407.5C 193.21,409.058 193.71,410.391 194.5,411.5C 194.5,411.833 194.5,412.167 194.5,412.5C 195.57,417.977 193.57,421.644 188.5,423.5C 187.817,423.137 187.15,422.804 186.5,422.5C 186.5,421.5 186.5,420.5 186.5,419.5C 186.167,414.833 185.833,410.167 185.5,405.5C 184.938,394.6 183.605,383.933 181.5,373.5C 179.506,363.549 177.84,353.549 176.5,343.5C 176.5,341.833 176.5,340.167 176.5,338.5C 175.934,325.546 174.267,312.88 171.5,300.5C 171.324,297.273 170.657,294.273 169.5,291.5C 169.5,289.833 169.5,288.167 169.5,286.5C 169.477,280.288 168.81,274.288 167.5,268.5C 167.5,268.167 167.5,267.833 167.5,267.5C 166.371,256.837 165.204,246.17 164,235.5C 163.617,234.944 163.117,234.611 162.5,234.5C 162.5,234.167 162.5,233.833 162.5,233.5C 162.317,226.035 161.317,218.702 159.5,211.5C 164.507,211.751 169.507,212.084 174.5,212.5 Z"/></g>
<g><path style="opacity:1" fill="#9f1a2c" d="M 171.5,300.5 C 174.267,312.88 175.934,325.546 176.5,338.5C 174.979,328.478 173.312,318.478 171.5,308.5C 171.5,305.833 171.5,303.167 171.5,300.5 Z"/></g>
<g><path style="opacity:1" fill="#bc0920" d="M 251.5,316.5 C 251.5,336.833 251.5,357.167 251.5,377.5C 250.511,372.025 250.178,366.358 250.5,360.5C 249.448,360.351 248.448,360.517 247.5,361C 248.248,365.84 248.582,370.84 248.5,376C 246.833,377 245.167,378 243.5,379C 243.584,386.861 244.25,394.861 245.5,403C 243.437,406.904 240.771,410.404 237.5,413.5C 230.574,413.145 228.907,416.145 232.5,422.5C 234.784,421.584 235.951,422.584 236,425.5C 236.667,427.167 236.667,428.833 236,430.5C 235.329,431.252 234.496,431.586 233.5,431.5C 235.293,428.013 234.293,426.513 230.5,427C 226.473,431.027 222.473,435.027 218.5,439C 217.552,439.483 216.552,439.649 215.5,439.5C 215.5,440.833 215.5,442.167 215.5,443.5C 214.596,442.791 214.263,441.791 214.5,440.5C 213.167,440.5 211.833,440.5 210.5,440.5C 210.719,439.325 210.386,438.325 209.5,437.5C 208.604,436.494 207.938,436.494 207.5,437.5C 208.383,438.548 209.05,439.715 209.5,441C 209.21,445.919 208.543,450.919 207.5,456C 208.428,456.388 209.095,457.055 209.5,458C 208.635,465.516 208.301,473.349 208.5,481.5C 215.354,481.176 222.021,481.509 228.5,482.5C 221.833,482.5 215.167,482.5 208.5,482.5C 206.943,476.739 206.276,470.739 206.5,464.5C 206.666,458.824 206.499,453.157 206,447.5C 205.802,445.618 205.302,443.952 204.5,442.5C 204.5,442.167 204.5,441.833 204.5,441.5C 204.006,435.008 203.339,428.675 202.5,422.5C 201.065,415.285 200.398,407.951 200.5,400.5C 200.334,389.937 199.334,379.604 197.5,369.5C 195.508,352.227 194.175,334.894 193.5,317.5C 198.641,318.024 203.641,319.191 208.5,321C 216.5,321.667 224.5,321.667 232.5,321C 238.597,318.726 244.931,317.226 251.5,316.5 Z"/></g>
<g><path style="opacity:1" fill="#a91a2d" d="M 183.5,295.5 C 186.43,315.582 188.097,335.915 188.5,356.5C 186.506,342.698 185.006,328.698 184,314.5C 183.5,308.175 183.334,301.842 183.5,295.5 Z"/></g>
<g><path style="opacity:1" fill="#f7f8e0" d="M 319.5,209.5 C 319.795,211.735 319.461,213.735 318.5,215.5C 318.5,214.167 318.5,212.833 318.5,211.5C 314.486,211.334 310.486,211.501 306.5,212C 305.975,212.692 305.308,213.192 304.5,213.5C 302.484,212.294 300.484,212.294 298.5,213.5C 299.391,214.59 300.391,214.59 301.5,213.5C 302.287,214.242 302.953,215.075 303.5,216C 301.888,216.72 300.388,216.554 299,215.5C 296.65,216.963 294.317,218.297 292,219.5C 288.973,218.882 286.14,218.882 283.5,219.5C 282.353,219.182 281.519,218.516 281,217.5C 279.863,218.364 278.53,219.364 277,220.5C 274.437,220.659 271.77,220.325 269,219.5C 267.559,220.26 266.059,220.926 264.5,221.5C 263.89,224.444 262.89,227.444 261.5,230.5C 260.833,228.5 260.167,226.5 259.5,224.5C 258.823,229.131 258.823,233.631 259.5,238C 262.278,239.392 265.278,239.892 268.5,239.5C 268.566,253.631 268.566,267.964 268.5,282.5C 266.097,282.393 264.264,283.393 263,285.5C 262.42,289.486 262.92,292.986 264.5,296C 263.106,297.739 262.439,299.739 262.5,302C 263.078,304.692 263.745,307.026 264.5,309C 261.537,314.816 260.37,320.982 261,327.5C 263.381,326.565 265.881,326.232 268.5,326.5C 269.352,337.741 269.352,349.074 268.5,360.5C 270.124,360.64 271.29,359.973 272,358.5C 274.476,359.815 276.643,361.482 278.5,363.5C 277.751,365.241 277.417,366.908 277.5,368.5C 274.914,369.48 272.247,369.813 269.5,369.5C 268.659,375.357 268.659,380.857 269.5,386C 267.236,386.236 265.069,386.736 263,387.5C 262.501,392.823 262.334,398.156 262.5,403.5C 264.5,403.833 266.5,404.167 268.5,404.5C 268.5,410.167 268.5,415.833 268.5,421.5C 265.833,421.5 263.167,421.5 260.5,421.5C 260.87,431.889 260.37,442.223 259,452.5C 258.667,449.167 258.333,445.833 258,442.5C 257.333,446.833 257.333,451.167 258,455.5C 258.333,454.833 258.667,454.167 259,453.5C 260.044,454.623 260.71,455.956 261,457.5C 263.555,455.35 266.388,455.017 269.5,456.5C 268.121,457.863 268.287,458.863 270,459.5C 271.138,459.011 272.305,458.678 273.5,458.5C 268.142,463.186 262.475,467.519 256.5,471.5C 256.5,467.833 256.5,464.167 256.5,460.5C 256.181,378.482 256.514,296.482 257.5,214.5C 278.245,213.716 298.912,212.049 319.5,209.5 Z"/></g>
<g><path style="opacity:1" fill="#d7182e" d="M 396.5,270.5 C 397.5,270.5 398.5,270.5 399.5,270.5C 399.5,271.833 399.5,273.167 399.5,274.5C 399.414,278.857 399.08,283.19 398.5,287.5C 397.275,292.29 396.608,297.29 396.5,302.5C 395.88,310.347 394.88,318.013 393.5,325.5C 391.609,333.583 390.609,341.917 390.5,350.5C 390.5,351.167 390.5,351.833 390.5,352.5C 389.194,357.616 388.527,362.949 388.5,368.5C 388.47,372.618 387.803,376.618 386.5,380.5C 385.801,382.556 384.801,384.556 383.5,386.5C 381.343,384.067 381.176,381.4 383,378.5C 383.522,370.83 384.022,363.163 384.5,355.5C 386.001,342.829 387.667,330.163 389.5,317.5C 391.104,313.1 391.771,308.434 391.5,303.5C 391.5,302.833 391.5,302.167 391.5,301.5C 393.011,298.456 393.678,295.122 393.5,291.5C 393.5,290.5 393.5,289.5 393.5,288.5C 394.268,287.737 394.768,286.737 395,285.5C 395.498,282.183 395.665,278.85 395.5,275.5C 396.301,273.958 396.634,272.292 396.5,270.5 Z"/></g>
<g><path style="opacity:1" fill="#921527" d="M 121.5,317.5 C 123.48,325.94 124.814,334.607 125.5,343.5C 123.375,335.093 122.042,326.426 121.5,317.5 Z"/></g>
<g><path style="opacity:1" fill="#77cbd0" d="M 334.5,447.5 C 334.369,448.239 334.536,448.906 335,449.5C 337.081,447.518 339.581,446.184 342.5,445.5C 342.833,444.333 343.167,443.167 343.5,442C 348.216,410.092 353.05,378.258 358,346.5C 361.913,315.532 365.413,284.532 368.5,253.5C 371.549,236.769 373.549,219.769 374.5,202.5C 371.219,202.42 368.219,203.087 365.5,204.5C 364.167,204.5 362.833,204.5 361.5,204.5C 361.5,201.167 361.5,197.833 361.5,194.5C 374.906,191.753 388.239,188.753 401.5,185.5C 388.208,280.795 375.208,376.128 362.5,471.5C 352.219,473.756 341.885,475.756 331.5,477.5C 331.638,467.273 332.638,457.273 334.5,447.5 Z"/></g>
<g><path style="opacity:1" fill="#8c1627" d="M 319.5,308.5 C 319.406,327.732 318.072,346.732 315.5,365.5C 316.562,346.327 317.896,327.327 319.5,308.5 Z"/></g>
<g><path style="opacity:1" fill="#991c2e" d="M 393.5,325.5 C 393.214,334.058 392.214,342.391 390.5,350.5C 390.609,341.917 391.609,333.583 393.5,325.5 Z"/></g>
<g><path style="opacity:1" fill="#530b16" d="M 338.5,340.5 C 338.38,351.79 337.047,362.79 334.5,373.5C 335.555,362.327 336.888,351.327 338.5,340.5 Z"/></g>
<g><path style="opacity:1" fill="#b02935" d="M 347.5,327.5 C 347.185,331.371 347.518,335.038 348.5,338.5C 347.821,350.576 346.487,362.576 344.5,374.5C 343.833,374.5 343.167,374.5 342.5,374.5C 343.277,358.591 344.944,342.925 347.5,327.5 Z"/></g>
<g><path style="opacity:1" fill="#5c0d19" d="M 127.5,351.5 C 128.657,354.273 129.324,357.273 129.5,360.5C 127.882,357.829 127.215,354.829 127.5,351.5 Z"/></g>
<g><path style="opacity:1" fill="#f6f7e1" d="M 107.5,200.5 C 112.433,201.323 117.099,202.656 121.5,204.5C 119.801,204.34 118.134,204.506 116.5,205C 117.696,205.654 117.696,206.154 116.5,206.5C 114.219,204.284 111.552,203.451 108.5,204C 110.723,204.652 111.89,206.152 112,208.5C 113.482,206.219 115.149,206.219 117,208.5C 118.494,207.253 119.994,207.253 121.5,208.5C 122.167,209.833 122.833,211.167 123.5,212.5C 121.257,213.474 118.924,213.808 116.5,213.5C 116.38,215.734 116.713,217.901 117.5,220C 115.573,223.238 115.073,226.738 116,230.5C 117.011,231.337 118.178,231.67 119.5,231.5C 119.768,234.119 119.435,236.619 118.5,239C 122.191,245.22 123.191,251.887 121.5,259C 123.664,263.858 124.997,269.024 125.5,274.5C 128.914,279.318 130.58,284.651 130.5,290.5C 127.32,290.176 126.153,291.51 127,294.5C 130.887,291.28 135.054,290.78 139.5,293C 139,295.5 138.5,298 138,300.5C 135.38,299.774 132.88,300.274 130.5,302C 132.146,303.555 132.479,305.221 131.5,307C 132.253,308.487 133.086,308.654 134,307.5C 134.58,313.887 135.413,320.221 136.5,326.5C 135.141,328.306 135.475,329.806 137.5,331C 137.059,333.453 137.559,335.953 139,338.5C 139.333,337.167 139.667,335.833 140,334.5C 142.305,334.579 144.805,334.746 147.5,335C 148.444,337.719 148.777,340.552 148.5,343.5C 144.833,343.5 141.167,343.5 137.5,343.5C 137.522,347.593 138.189,351.593 139.5,355.5C 139.449,357.1 139.116,358.6 138.5,360C 139.938,360.219 141.271,360.719 142.5,361.5C 142.55,363.831 142.217,365.997 141.5,368C 142.175,372.948 143.175,377.781 144.5,382.5C 145.552,382.351 146.552,382.517 147.5,383C 147.061,389.527 147.061,395.861 147.5,402C 148.623,403.044 149.956,403.71 151.5,404C 150.363,409.082 150.196,414.249 151,419.5C 151.333,419.833 151.667,420.167 152,420.5C 153.758,418.127 155.591,418.127 157.5,420.5C 153.287,420.866 150.287,423.033 148.5,427C 148.667,428.5 149.5,429.333 151,429.5C 152.406,428.586 153.906,427.92 155.5,427.5C 155.821,429.048 156.821,429.715 158.5,429.5C 158.532,434.377 159.199,439.377 160.5,444.5C 160.333,446.833 160.167,449.167 160,451.5C 155.127,456.301 155.96,457.468 162.5,455C 163.071,453.795 163.738,452.628 164.5,451.5C 168.362,452.174 171.862,451.174 175,448.5C 175.333,445.167 175.667,441.833 176,438.5C 177.117,439.949 177.784,441.616 178,443.5C 178.671,442.748 179.504,442.414 180.5,442.5C 180.358,445.617 179.024,448.117 176.5,450C 170.408,453.43 164.908,457.597 160,462.5C 159.586,462.043 159.086,461.709 158.5,461.5C 156.241,461.784 154.574,462.784 153.5,464.5C 151.124,460.595 150.124,456.261 150.5,451.5C 156.301,451.875 158.635,449.375 157.5,444C 154.833,443.667 152.167,443.333 149.5,443C 148.424,441.274 148.257,439.441 149,437.5C 154.175,439.65 156.508,437.983 156,432.5C 153.519,430.686 150.685,430.02 147.5,430.5C 134.81,353.656 121.477,276.989 107.5,200.5 Z"/></g>
<g><path style="opacity:1" fill="#260808" d="M 176.5,343.5 C 177.84,353.549 179.506,363.549 181.5,373.5C 181.5,376.5 181.5,379.5 181.5,382.5C 180.356,378.028 179.523,373.362 179,368.5C 177.844,369.993 177.01,369.826 176.5,368C 175.655,359.978 175.655,351.811 176.5,343.5 Z"/></g>
<g><path style="opacity:1" fill="#490b13" d="M 390.5,352.5 C 390.745,358.084 390.078,363.417 388.5,368.5C 388.527,362.949 389.194,357.616 390.5,352.5 Z"/></g>
<g><path style="opacity:1" fill="#ad1c2f" d="M 181.5,373.5 C 183.605,383.933 184.938,394.6 185.5,405.5C 185.167,405.5 184.833,405.5 184.5,405.5C 183.73,397.665 182.73,389.998 181.5,382.5C 181.5,379.5 181.5,376.5 181.5,373.5 Z"/></g>
<g><path style="opacity:1" fill="#c20820" d="M 251.5,377.5 C 251.5,409.5 251.5,441.5 251.5,473.5C 246.102,476.037 240.769,478.87 235.5,482C 233.19,482.497 230.857,482.663 228.5,482.5C 222.021,481.509 215.354,481.176 208.5,481.5C 208.301,473.349 208.635,465.516 209.5,458C 209.095,457.055 208.428,456.388 207.5,456C 208.543,450.919 209.21,445.919 209.5,441C 209.05,439.715 208.383,438.548 207.5,437.5C 207.938,436.494 208.604,436.494 209.5,437.5C 210.386,438.325 210.719,439.325 210.5,440.5C 211.833,440.5 213.167,440.5 214.5,440.5C 214.263,441.791 214.596,442.791 215.5,443.5C 217.166,444.666 218.833,444.666 220.5,443.5C 224.254,438.804 228.588,434.804 233.5,431.5C 234.496,431.586 235.329,431.252 236,430.5C 236.667,428.833 236.667,427.167 236,425.5C 235.951,422.584 234.784,421.584 232.5,422.5C 228.907,416.145 230.574,413.145 237.5,413.5C 240.771,410.404 243.437,406.904 245.5,403C 244.25,394.861 243.584,386.861 243.5,379C 245.167,378 246.833,377 248.5,376C 248.582,370.84 248.248,365.84 247.5,361C 248.448,360.517 249.448,360.351 250.5,360.5C 250.178,366.358 250.511,372.025 251.5,377.5 Z"/></g>
<g><path style="opacity:1" fill="#c00d23" d="M 125.5,343.5 C 126.768,345.905 127.435,348.572 127.5,351.5C 127.215,354.829 127.882,357.829 129.5,360.5C 130.445,365.114 131.112,369.781 131.5,374.5C 131.517,385.04 132.851,395.373 135.5,405.5C 135.333,406.833 135.167,408.167 135,409.5C 134.667,409.167 134.333,408.833 134,408.5C 133.578,410.426 132.411,411.426 130.5,411.5C 130.5,410.5 130.5,409.5 130.5,408.5C 129.067,396.167 127.567,383.834 126,371.5C 125.722,370.584 125.222,369.918 124.5,369.5C 124.12,363.371 123.12,357.371 121.5,351.5C 124.058,349.566 125.391,346.899 125.5,343.5 Z"/></g>
<g><path style="opacity:1" fill="#b1192d" d="M 384.5,355.5 C 384.022,363.163 383.522,370.83 383,378.5C 381.176,381.4 381.343,384.067 383.5,386.5C 384.801,384.556 385.801,382.556 386.5,380.5C 385.979,386.852 385.313,393.185 384.5,399.5C 384.167,399.5 383.833,399.5 383.5,399.5C 383.824,395.445 383.491,391.445 382.5,387.5C 381.828,388.949 381.161,390.282 380.5,391.5C 380.5,388.833 380.5,386.167 380.5,383.5C 381.578,373.999 382.911,364.665 384.5,355.5 Z"/></g>
<g><path style="opacity:1" fill="#a0624c" d="M 342.5,374.5 C 343.167,374.5 343.833,374.5 344.5,374.5C 342.133,390.632 339.8,406.632 337.5,422.5C 337.5,421.167 337.5,419.833 337.5,418.5C 339.166,403.834 340.833,389.167 342.5,374.5 Z"/></g>
<g><path style="opacity:1" fill="#8b1828" d="M 197.5,369.5 C 199.334,379.604 200.334,389.937 200.5,400.5C 198.892,390.37 197.892,380.037 197.5,369.5 Z"/></g>
<g><path style="opacity:1" fill="#891526" d="M 124.5,369.5 C 125.222,369.918 125.722,370.584 126,371.5C 127.567,383.834 129.067,396.167 130.5,408.5C 129.883,408.389 129.383,408.056 129,407.5C 127.389,394.837 125.889,382.171 124.5,369.5 Z"/></g>
<g><path style="opacity:1" fill="#c50e25" d="M 383.5,399.5 C 382.746,403.76 381.746,408.094 380.5,412.5C 379.109,410.39 378.442,408.057 378.5,405.5C 379.983,400.975 380.649,396.309 380.5,391.5C 381.161,390.282 381.828,388.949 382.5,387.5C 383.491,391.445 383.824,395.445 383.5,399.5 Z"/></g>
<g><path style="opacity:1" fill="#9d1b2c" d="M 192.5,390.5 C 193.565,397.317 194.232,404.317 194.5,411.5C 193.71,410.391 193.21,409.058 193,407.5C 192.501,401.843 192.334,396.176 192.5,390.5 Z"/></g>
<g><path style="opacity:1" fill="#f6f7e1" d="M 368.5,253.5 C 365.413,284.532 361.913,315.532 358,346.5C 353.05,378.258 348.216,410.092 343.5,442C 343.167,443.167 342.833,444.333 342.5,445.5C 339.581,446.184 337.081,447.518 335,449.5C 334.536,448.906 334.369,448.239 334.5,447.5C 334.5,445.5 334.5,443.5 334.5,441.5C 335.571,435.3 336.571,428.967 337.5,422.5C 339.8,406.632 342.133,390.632 344.5,374.5C 346.487,362.576 347.821,350.576 348.5,338.5C 350.365,328.041 351.698,317.375 352.5,306.5C 353.482,302.684 354.149,298.684 354.5,294.5C 355.5,285.833 356.5,277.166 357.5,268.5C 359.012,263.071 359.679,257.404 359.5,251.5C 359.674,249.139 360.007,246.806 360.5,244.5C 361.585,239.704 363.252,235.037 365.5,230.5C 366.117,230.389 366.617,230.056 367,229.5C 367.118,232.371 367.784,235.038 369,237.5C 369.315,242.838 369.148,248.172 368.5,253.5 Z"/></g>
<g><path style="opacity:1" fill="#900d20" d="M 131.5,374.5 C 134.476,388.272 136.81,402.272 138.5,416.5C 138.359,422.526 138.692,428.526 139.5,434.5C 138.296,439.581 137.629,444.581 137.5,449.5C 136.225,445.149 136.225,440.815 137.5,436.5C 136.758,435.713 135.925,435.047 135,434.5C 134.667,431.5 134.333,428.5 134,425.5C 133.722,424.584 133.222,423.918 132.5,423.5C 131.448,419.574 130.782,415.574 130.5,411.5C 132.411,411.426 133.578,410.426 134,408.5C 134.333,408.833 134.667,409.167 135,409.5C 135.167,408.167 135.333,406.833 135.5,405.5C 132.851,395.373 131.517,385.04 131.5,374.5 Z"/></g>
<g><path style="opacity:1" fill="#370b0e" d="M 184.5,405.5 C 184.833,405.5 185.167,405.5 185.5,405.5C 185.833,410.167 186.167,414.833 186.5,419.5C 184.896,415.1 184.229,410.434 184.5,405.5 Z"/></g>
<g><path style="opacity:1" fill="#8e0c1f" d="M 380.5,383.5 C 380.5,386.167 380.5,388.833 380.5,391.5C 380.649,396.309 379.983,400.975 378.5,405.5C 378.442,408.057 379.109,410.39 380.5,412.5C 381.746,408.094 382.746,403.76 383.5,399.5C 383.833,399.5 384.167,399.5 384.5,399.5C 383.319,406.514 382.319,413.514 381.5,420.5C 379.789,424.881 379.123,429.547 379.5,434.5C 378.835,436.369 378.169,438.369 377.5,440.5C 376.833,439.833 376.167,439.167 375.5,438.5C 374.508,434.217 374.174,429.884 374.5,425.5C 376.336,411.478 378.336,397.478 380.5,383.5 Z"/></g>
<g><path style="opacity:1" fill="#151514" d="M 157.5,420.5 C 158.097,420.735 158.43,421.235 158.5,422C 157.876,424.085 156.876,425.918 155.5,427.5C 153.906,427.92 152.406,428.586 151,429.5C 149.5,429.333 148.667,428.5 148.5,427C 150.287,423.033 153.287,420.866 157.5,420.5 Z"/></g>
<g><path style="opacity:1" fill="#180304" d="M 225.5,419.5 C 226.833,419.5 228.167,419.5 229.5,419.5C 228.671,423.171 226.504,425.838 223,427.5C 221.5,427.333 220.667,426.5 220.5,425C 221.742,422.728 223.408,420.894 225.5,419.5 Z"/></g>
<g><path style="opacity:1" fill="#381714" d="M 337.5,418.5 C 337.5,419.833 337.5,421.167 337.5,422.5C 336.571,428.967 335.571,435.3 334.5,441.5C 334.544,434.774 334.377,428.107 334,421.5C 334.308,422.308 334.808,422.975 335.5,423.5C 336.17,421.709 336.837,420.042 337.5,418.5 Z"/></g>
<g><path style="opacity:1" fill="#660314" d="M 315.5,369.5 C 314.666,387.167 314.166,404.833 314,422.5C 314.718,423.451 315.551,423.617 316.5,423C 321.82,417.851 326.82,412.685 331.5,407.5C 328.703,431.223 326.37,454.889 324.5,478.5C 319.167,478.833 313.833,479.167 308.5,479.5C 310.548,442.667 312.881,406 315.5,369.5 Z"/></g>
<g><path style="opacity:1" fill="#580815" d="M 381.5,420.5 C 381.187,425.353 380.521,430.02 379.5,434.5C 379.123,429.547 379.789,424.881 381.5,420.5 Z"/></g>
<g><path style="opacity:1" fill="#1e0606" d="M 233.5,431.5 C 228.588,434.804 224.254,438.804 220.5,443.5C 218.833,444.666 217.166,444.666 215.5,443.5C 215.5,442.167 215.5,440.833 215.5,439.5C 216.552,439.649 217.552,439.483 218.5,439C 222.473,435.027 226.473,431.027 230.5,427C 234.293,426.513 235.293,428.013 233.5,431.5 Z"/></g>
<g><path style="opacity:1" fill="#710517" d="M 194.5,412.5 C 197.301,434.98 199.634,457.646 201.5,480.5C 198.881,480.768 196.381,480.435 194,479.5C 191.119,460.52 188.619,441.52 186.5,422.5C 187.15,422.804 187.817,423.137 188.5,423.5C 193.57,421.644 195.57,417.977 194.5,412.5 Z"/></g>
<g><path style="opacity:1" fill="#620e1a" d="M 202.5,422.5 C 203.339,428.675 204.006,435.008 204.5,441.5C 203.732,440.737 203.232,439.737 203,438.5C 202.501,433.177 202.334,427.844 202.5,422.5 Z"/></g>
<g><path style="opacity:1" fill="#841424" d="M 204.5,442.5 C 205.302,443.952 205.802,445.618 206,447.5C 206.499,453.157 206.666,458.824 206.5,464.5C 205.53,457.341 204.864,450.007 204.5,442.5 Z"/></g>
<g><path style="opacity:0.997" fill="#1b0b09" d="M 237.5,435.5 C 240.166,435.066 241.333,436.066 241,438.5C 233.488,445.083 226.321,451.917 219.5,459C 217.393,459.854 216.059,459.188 215.5,457C 216.289,455.374 217.289,453.874 218.5,452.5C 225.177,447.153 231.51,441.486 237.5,435.5 Z"/></g>
<g><path style="opacity:1" fill="#780619" d="M 138.5,416.5 C 140.644,427.626 142.31,438.96 143.5,450.5C 143.701,456.509 144.034,462.509 144.5,468.5C 143.5,468.5 142.5,468.5 141.5,468.5C 140.5,468.5 139.5,468.5 138.5,468.5C 136.418,453.51 134.418,438.51 132.5,423.5C 133.222,423.918 133.722,424.584 134,425.5C 134.333,428.5 134.667,431.5 135,434.5C 135.925,435.047 136.758,435.713 137.5,436.5C 136.225,440.815 136.225,445.149 137.5,449.5C 137.629,444.581 138.296,439.581 139.5,434.5C 138.692,428.526 138.359,422.526 138.5,416.5 Z"/></g>
<g><path style="opacity:1" fill="#520914" d="M 143.5,450.5 C 145.042,456.953 146.042,463.62 146.5,470.5C 144.302,470.88 142.635,470.213 141.5,468.5C 142.5,468.5 143.5,468.5 144.5,468.5C 144.034,462.509 143.701,456.509 143.5,450.5 Z"/></g>
<g><path style="opacity:1" fill="#79cbcf" d="M 181.5,432.5 C 183.894,447.979 185.894,463.646 187.5,479.5C 176.798,477.994 166.131,476.161 155.5,474C 153.656,471.196 152.989,468.03 153.5,464.5C 154.574,462.784 156.241,461.784 158.5,461.5C 159.086,461.709 159.586,462.043 160,462.5C 164.908,457.597 170.408,453.43 176.5,450C 179.024,448.117 180.358,445.617 180.5,442.5C 181.479,439.375 181.813,436.042 181.5,432.5 Z"/></g>
<g><path style="opacity:1" fill="#750719" d="M 374.5,425.5 C 374.174,429.884 374.508,434.217 375.5,438.5C 376.167,439.167 376.833,439.833 377.5,440.5C 378.169,438.369 378.835,436.369 379.5,434.5C 378.377,445.572 376.71,456.572 374.5,467.5C 372.591,468.348 370.591,468.682 368.5,468.5C 370.332,454.011 372.332,439.678 374.5,425.5 Z"/></g>
<g><path style="opacity:1" fill="#79ccd1" d="M 304.5,435.5 C 303.499,450.508 302.333,465.508 301,480.5C 289.261,482.032 277.428,483.032 265.5,483.5C 262.5,483.5 259.5,483.5 256.5,483.5C 256.5,479.5 256.5,475.5 256.5,471.5C 262.475,467.519 268.142,463.186 273.5,458.5C 274.922,458.291 276.255,457.791 277.5,457C 286.663,450 295.663,442.833 304.5,435.5 Z"/></g>
<g><path style="opacity:1" fill="#4f6b6c" d="M 256.5,460.5 C 256.5,464.167 256.5,467.833 256.5,471.5C 256.5,475.5 256.5,479.5 256.5,483.5C 259.5,483.5 262.5,483.5 265.5,483.5C 262.375,484.479 259.042,484.813 255.5,484.5C 255.174,476.316 255.508,468.316 256.5,460.5 Z"/></g>
<g><path style="opacity:1" fill="#7bcbcf" d="M 423.5,82.5 C 429.196,87.537 433.696,93.537 437,100.5C 437.492,105.551 437.492,110.551 437,115.5C 441.246,120.991 445.246,126.658 449,132.5C 449.658,136.572 449.325,140.572 448,144.5C 445.971,147.029 444.138,149.696 442.5,152.5C 455.729,166.727 454.063,178.894 437.5,189C 436.809,190.067 436.309,191.234 436,192.5C 424.082,287.509 412.082,382.509 400,477.5C 399.75,480.754 398.75,483.754 397,486.5C 392.625,489.628 387.792,491.794 382.5,493C 320.689,506.058 258.355,509.391 195.5,503C 183.079,501.541 170.746,499.541 158.5,497C 151.128,493.453 144.795,488.62 139.5,482.5C 139.369,481.624 139.702,480.957 140.5,480.5C 145.524,483.23 150.857,485.064 156.5,486C 226.755,498.252 296.755,496.918 366.5,482C 375.237,480.576 381.737,476.076 386,468.5C 395.218,396.81 404.385,325.143 413.5,253.5C 415.211,249.119 415.877,244.453 415.5,239.5C 417.85,218.854 420.016,198.188 422,177.5C 440.185,170.083 443.351,158.583 431.5,143C 440.708,127.126 437.708,114.293 422.5,104.5C 425.429,97.4597 425.096,90.6263 421.5,84C 422.416,83.7216 423.082,83.2216 423.5,82.5 Z"/></g>
<g><path style="opacity:1" fill="#650414" d="M 251.5,473.5 C 251.833,473.5 252.167,473.5 252.5,473.5C 251.676,476.764 251.342,480.098 251.5,483.5C 236.99,483.829 222.657,483.496 208.5,482.5C 215.167,482.5 221.833,482.5 228.5,482.5C 230.857,482.663 233.19,482.497 235.5,482C 240.769,478.87 246.102,476.037 251.5,473.5 Z"/></g>
</svg>
