<?xml version="1.0" encoding="UTF-8"?>
<!DOCTYPE svg PUBLIC "-//W3C//DTD SVG 1.1//EN" "http://www.w3.org/Graphics/SVG/1.1/DTD/svg11.dtd">
<svg xmlns="http://www.w3.org/2000/svg" version="1.1" width="512px" height="512px" style="shape-rendering:geometricPrecision; text-rendering:geometricPrecision; image-rendering:optimizeQuality; fill-rule:evenodd; clip-rule:evenodd" xmlns:xlink="http://www.w3.org/1999/xlink">
<g><path style="opacity:0.934" fill="#848484" d="M 42.5,-0.5 C 50.8333,-0.5 59.1667,-0.5 67.5,-0.5C 74.4454,5.34277 75.1121,11.8428 69.5,19C 68.1667,19.6667 66.8333,20.3333 65.5,21C 57.1926,21.0308 49.0259,21.8642 41,23.5C 34.1918,22.6919 30.3585,18.8585 29.5,12C 30.4445,4.22076 34.7779,0.0540915 42.5,-0.5 Z"/></g>
<g><path style="opacity:0.938" fill="#848484" d="M 100.5,-0.5 C 110.833,-0.5 121.167,-0.5 131.5,-0.5C 137.414,3.40871 139.248,8.74205 137,15.5C 135.125,18.1873 132.625,20.0206 129.5,21C 120.5,21.6667 111.5,21.6667 102.5,21C 95.352,18.2022 92.852,13.0355 95,5.5C 96.3597,2.97739 98.193,0.977392 100.5,-0.5 Z"/></g>
<g><path style="opacity:0.939" fill="#848484" d="M 165.5,-0.5 C 175.833,-0.5 186.167,-0.5 196.5,-0.5C 202.569,3.79298 204.069,9.45964 201,16.5C 199.363,18.8102 197.196,20.3102 194.5,21C 185.5,21.6667 176.5,21.6667 167.5,21C 159.869,18.2987 157.369,13.1321 160,5.5C 161.36,2.97739 163.193,0.977392 165.5,-0.5 Z"/></g>
<g><path style="opacity:0.935" fill="#848484" d="M 229.5,-0.5 C 240.167,-0.5 250.833,-0.5 261.5,-0.5C 267.891,4.37227 269.057,10.3723 265,17.5C 263.421,19.0412 261.587,20.2078 259.5,21C 250.167,21.6667 240.833,21.6667 231.5,21C 225.482,18.465 222.982,13.965 224,7.5C 225.104,4.27885 226.937,1.61218 229.5,-0.5 Z"/></g>
<g><path style="opacity:0.925" fill="#848484" d="M 292.5,11.5 C 295.978,11.1842 299.312,11.6842 302.5,13C 310.688,20.7104 316.021,30.0437 318.5,41C 316.065,50.8842 310.065,53.8842 300.5,50C 297.098,46.0324 294.598,41.5324 293,36.5C 291.374,33.8723 289.374,31.539 287,29.5C 285.48,25.6251 285.146,21.6251 286,17.5C 287.494,14.6865 289.66,12.6865 292.5,11.5 Z"/></g>
<g><path style="opacity:0.938" fill="#848484" d="M -0.5,67.5 C -0.5,59.1667 -0.5,50.8333 -0.5,42.5C 2.90889,29.882 10.0756,27.2153 21,34.5C 22.0223,36.7017 22.5223,39.0351 22.5,41.5C 22.0679,50.5653 21.2345,59.5653 20,68.5C 15.4022,73.645 9.90218,74.8117 3.5,72C 1.92975,70.6032 0.596413,69.1032 -0.5,67.5 Z"/></g>
<g><path style="opacity:0.935" fill="#848484" d="M 305.5,72.5 C 311.226,71.9028 315.726,73.9028 319,78.5C 319.667,89.1667 319.667,99.8333 319,110.5C 314.313,116.935 308.479,118.102 301.5,114C 299.959,112.421 298.792,110.587 298,108.5C 297.333,99.1667 297.333,89.8333 298,80.5C 299.353,76.6499 301.853,73.9832 305.5,72.5 Z"/></g>
<g><path style="opacity:0.935" fill="#848484" d="M -0.5,132.5 C -0.5,121.833 -0.5,111.167 -0.5,100.5C 4.47161,94.2816 10.4716,93.1149 17.5,97C 19.0412,98.5793 20.2078,100.413 21,102.5C 21.6667,111.833 21.6667,121.167 21,130.5C 18.1885,136.823 13.3552,139.323 6.5,138C 3.37935,137.033 1.04602,135.2 -0.5,132.5 Z"/></g>
<g><path style="opacity:0.957" fill="#848484" d="M 511.5,234.5 C 511.5,312.5 511.5,390.5 511.5,468.5C 505.509,491.158 491.175,505.491 468.5,511.5C 390.5,511.5 312.5,511.5 234.5,511.5C 211.821,505.654 197.655,491.321 192,468.5C 191.667,436.833 191.333,405.167 191,373.5C 173.233,357.881 165.9,338.214 169,314.5C 168.167,316.667 166.667,318.167 164.5,319C 157.5,319.667 150.5,319.667 143.5,319C 134.997,311.036 135.664,304.036 145.5,298C 151.167,297.333 156.833,297.333 162.5,298C 165.102,298.883 167.269,300.383 169,302.5C 169.667,298.833 169.667,295.167 169,291.5C 162.539,286.045 157.206,279.712 153,272.5C 146.872,253.205 152.372,238.372 169.5,228C 172.72,226.648 176.053,225.814 179.5,225.5C 180.718,201.619 193.384,189.619 217.5,189.5C 220.582,175.917 228.915,167.417 242.5,164C 248.22,163.212 253.886,163.379 259.5,164.5C 264.486,154.017 272.486,146.85 283.5,143C 288.492,141.461 293.492,141.294 298.5,142.5C 305.712,135.621 312.545,135.954 319,143.5C 319.333,147.167 319.667,150.833 320,154.5C 332.196,166.362 344.03,178.529 355.5,191C 393.167,191.333 430.833,191.667 468.5,192C 491.348,197.681 505.681,211.848 511.5,234.5 Z M 288.5,164.5 C 292.869,163.923 296.869,164.757 300.5,167C 312.667,179.167 324.833,191.333 337,203.5C 365.035,237.79 369.035,274.79 349,314.5C 332.345,340.918 308.512,356.418 277.5,361C 256.116,361.955 234.782,361.621 213.5,360C 200.14,354.646 192.974,344.812 192,330.5C 191.333,325.167 191.333,319.833 192,314.5C 200.898,324.068 210.398,332.901 220.5,341C 233.566,340.714 237.399,334.547 232,322.5C 213,303.5 194,284.5 175,265.5C 171.183,258.951 172.349,253.451 178.5,249C 183.028,246.81 187.361,247.144 191.5,250C 199.833,258.333 208.167,266.667 216.5,275C 223.797,279.2 229.63,277.7 234,270.5C 234.965,266.218 234.298,262.218 232,258.5C 222.333,248.833 212.667,239.167 203,229.5C 199.827,217.675 204.327,212.175 216.5,213C 224.432,218.928 231.765,225.595 238.5,233C 251.444,236.613 256.944,231.78 255,218.5C 250.7,213.199 246.034,208.199 241,203.5C 237.168,196.993 238.335,191.493 244.5,187C 249.028,184.81 253.361,185.144 257.5,188C 262.199,193.034 267.199,197.7 272.5,202C 284.555,203.611 289.388,198.445 287,186.5C 279.293,178.462 279.793,171.128 288.5,164.5 Z M 371.5,213.5 C 402.502,213.333 433.502,213.5 464.5,214C 477.333,217.5 485.5,225.667 489,238.5C 489.667,313.833 489.667,389.167 489,464.5C 485.5,477.333 477.333,485.5 464.5,489C 389.167,489.667 313.833,489.667 238.5,489C 225.667,485.5 217.5,477.333 214,464.5C 213.5,437.502 213.333,410.502 213.5,383.5C 236.502,383.667 259.502,383.5 282.5,383C 330.843,374.991 363.01,347.824 379,301.5C 387.027,271.208 384.527,241.874 371.5,213.5 Z"/></g>
<g><path style="opacity:0.936" fill="#848484" d="M -0.5,196.5 C -0.5,186.167 -0.5,175.833 -0.5,165.5C 3.84442,159.567 9.51108,158.067 16.5,161C 18.8102,162.637 20.3102,164.804 21,167.5C 21.6667,176.5 21.6667,185.5 21,194.5C 18.058,202.377 12.558,204.877 4.5,202C 2.59809,200.27 0.93142,198.437 -0.5,196.5 Z"/></g>
<g><path style="opacity:0.941" fill="#848484" d="M -0.5,261.5 C -0.5,251.167 -0.5,240.833 -0.5,230.5C 3.32694,224.85 8.66028,223.016 15.5,225C 18.1873,226.875 20.0206,229.375 21,232.5C 21.6667,241.5 21.6667,250.5 21,259.5C 18.2022,266.648 13.0355,269.148 5.5,267C 2.97739,265.64 0.977392,263.807 -0.5,261.5 Z"/></g>
<g><path style="opacity:0.918" fill="#848484" d="M 18.5,285.5 C 21.5184,285.335 24.5184,285.502 27.5,286C 33.2043,291.522 39.871,295.522 47.5,298C 52.9363,302.785 53.7696,308.285 50,314.5C 46.8155,317.844 42.9822,319.011 38.5,318C 28.5269,315.263 20.0269,310.096 13,302.5C 10.1496,295.219 11.983,289.553 18.5,285.5 Z"/></g>
<g><path style="opacity:0.94" fill="#848484" d="M 81.5,297.5 C 91.5797,297.077 101.58,297.577 111.5,299C 116.153,302.788 117.653,307.622 116,313.5C 114.833,316 113,317.833 110.5,319C 100.167,319.667 89.8333,319.667 79.5,319C 72.6885,314.264 71.3551,308.431 75.5,301.5C 77.2903,299.684 79.2903,298.351 81.5,297.5 Z"/></g>
</svg>
